<?xml version="1.0" encoding="UTF-8" standalone="no"?>
<!-- Created with Inkscape (http://www.inkscape.org/) -->

<svg
   version="1.1"
   id="svg9"
   width="1350"
   height="1350"
   viewBox="0 0 1350 1350"
   sodipodi:docname="le_plat.svg"
   inkscape:version="1.1.1 (3bf5ae0d25, 2021-09-20)"
   xmlns:inkscape="http://www.inkscape.org/namespaces/inkscape"
   xmlns:sodipodi="http://sodipodi.sourceforge.net/DTD/sodipodi-0.dtd"
   xmlns="http://www.w3.org/2000/svg"
   xmlns:svg="http://www.w3.org/2000/svg">
  <defs
     id="defs13" />
  <sodipodi:namedview
     id="namedview11"
     pagecolor="#ffffff"
     bordercolor="#666666"
     borderopacity="1.0"
     inkscape:pageshadow="2"
     inkscape:pageopacity="0.0"
     inkscape:pagecheckerboard="true"
     showgrid="false"
     inkscape:zoom="0.28481481"
     inkscape:cx="-384.46034"
     inkscape:cy="349.3498"
     inkscape:window-width="1920"
     inkscape:window-height="977"
     inkscape:window-x="1912"
     inkscape:window-y="32"
     inkscape:window-maximized="1"
     inkscape:current-layer="layer2"
     fit-margin-top="0"
     fit-margin-left="0"
     fit-margin-right="0"
     fit-margin-bottom="0"
     inkscape:snap-path-clip="false"
     gridtolerance="10" />
  <g
     inkscape:groupmode="layer"
     inkscape:label="Image"
     id="g15"
     transform="translate(-675,-675)"
     style="display:inline">
    <path
       style="fill:#b5c6bc;stroke-width:0.5"
       d="m 1339.25,2005.4326 c -4.926,-0.6294 -14.4014,-2.8416 -19.0292,-4.4425 -21.9255,-7.5849 -38.9144,-21.5222 -51.3727,-42.145 -7.9563,-13.1705 -18.2106,-23.8835 -30.3629,-31.721 -14.5079,-9.3567 -33.2066,-14.8609 -50.4852,-14.8609 -26.7087,0 -52.9358,-11.8144 -70.306,-31.6704 -3.8399,-4.3895 -6.4936,-8.1258 -13.5513,-19.0796 -14.1292,-21.929 -35.9762,-36.5768 -61.8927,-41.4972 -2.3375,-0.4438 -9.875,-1.1163 -16.75,-1.4945 -16.8578,-0.9274 -24.9379,-2.6046 -36.83222,-7.6453 -11.20716,-4.7495 -22.26487,-12.3897 -30.76371,-21.256 -4.90066,-5.1125 -8.80827,-10.2972 -13.68769,-18.1612 -1.99076,-3.2084 -4.78823,-7.387 -6.2166,-9.2857 -17.61816,-23.4195 -45.6665,-37.4101 -74.99978,-37.4101 -9.48789,0 -19.47638,-1.6371 -29.33461,-4.8081 -6.8559,-2.2052 -18.8408,-8.2464 -24.91539,-12.5591 -6.18147,-4.3885 -17.7681,-15.9806 -22.12244,-22.1328 -4.19859,-5.9321 -10.30321,-18.0757 -12.57524,-25.0152 -3.70272,-11.3093 -5.32173,-24.6523 -4.36981,-36.0139 1.24242,-14.8287 3.90597,-23.6037 12.05678,-39.7209 6.35279,-12.5618 9.16358,-20.0919 11.10492,-29.75 1.01181,-5.0337 1.15579,-7.2137 1.15579,-17.5 0,-10.2863 -0.14398,-12.4663 -1.15579,-17.5 -1.93933,-9.6481 -4.75157,-17.1954 -11.08533,-29.75 -8.2148,-16.2832 -10.77092,-24.7155 -12.06926,-39.8151 -0.44867,-5.218 -0.44805,-8.4155 0.003,-13.645 1.27347,-14.7763 3.92552,-23.4806 12.04704,-39.5399 6.35279,-12.5618 9.16358,-20.0919 11.10492,-29.75 1.01182,-5.0337 1.15579,-7.2137 1.15579,-17.5 0,-10.2863 -0.14397,-12.4663 -1.15579,-17.5 -1.93932,-9.6481 -4.75156,-17.1954 -11.08532,-29.75 -8.21481,-16.2832 -10.77093,-24.7155 -12.06927,-39.8151 -0.44867,-5.218 -0.44805,-8.4155 0.003,-13.645 1.27346,-14.7763 3.92551,-23.4806 12.04704,-39.5399 6.35279,-12.5618 9.16358,-20.0919 11.10492,-29.75 1.01181,-5.0337 1.15579,-7.2137 1.15579,-17.5 0,-10.2863 -0.14398,-12.4663 -1.15579,-17.5 -1.93933,-9.6481 -4.75157,-17.1954 -11.08532,-29.75 -8.21482,-16.2832 -10.77094,-24.7155 -12.06927,-39.8151 -1.3232,-15.3888 1.8475,-32.307 8.74938,-46.6849 5.38208,-11.2119 11.11473,-19.1027 20.18597,-27.7853 6.91752,-6.6218 13.10124,-11.0277 21.62429,-15.4077 13.53416,-6.9553 28.11919,-10.557 42.75,-10.557 22.58754,0 44.89209,-8.4226 62.06998,-23.4387 7.49232,-6.5494 13.09793,-13.4102 19.48671,-23.8499 15.12654,-24.718 37.18097,-39.9493 65.44331,-45.1966 1.65,-0.3064 8.625,-0.8715 15.5,-1.2559 14.202,-0.7941 20.3865,-1.8069 29.5,-4.8312 14.3541,-4.7633 27.3809,-12.9606 37.8283,-23.80378 5.1082,-5.30183 8.9968,-10.43674 13.9553,-18.4281 1.9908,-3.20843 4.7883,-7.38699 6.2166,-9.2857 14.5158,-19.29561 35.9251,-32.20944 59.9983,-36.19021 2.4758,-0.40942 9.2265,-0.95515 15.0015,-1.21276 18.2863,-0.81568 28.8279,-3.42164 42.75,-10.56808 9.3859,-4.81792 15.096,-9.01481 23.0307,-16.92732 6.8845,-6.86523 10.6504,-11.66791 15.4894,-19.75355 13.9548,-23.31779 35.81,-38.93777 62.4507,-44.63375 5.8049,-1.24114 7.1855,-1.34374 18.2792,-1.35849 10.6203,-0.0141 12.6612,0.11779 17.75,1.14728 27.0457,5.47144 49.3434,21.22348 63.48,44.84496 4.8616,8.12358 8.6086,12.90053 15.4852,19.74193 7.9521,7.91146 13.7294,12.1608 23.0348,16.9429 13.5342,6.95524 28.1192,10.55697 42.75,10.55697 29.3333,0 57.3816,13.9906 74.9998,37.41012 1.4283,1.89871 4.2258,6.07727 6.2166,9.2857 4.9602,7.99422 8.8487,13.12841 13.954,18.42433 11.9951,12.44315 27.4815,21.45365 43.9881,25.59375 7.9818,2.002 10.2973,2.3027 23.3415,3.0321 14.157,0.7915 20.2895,1.7915 29.4659,4.8048 14.1752,4.6547 27.4364,12.993 37.7977,23.7661 5.2616,5.4708 9.199,10.6504 13.9696,18.3769 2.0185,3.2692 4.8386,7.4974 6.267,9.3961 14.5054,19.2818 35.9423,32.2123 59.9982,36.1902 2.4759,0.4094 9.2266,0.9551 15.0016,1.2127 17.6091,0.7855 28.5373,3.3823 41.4851,9.858 10.2106,5.1066 17.6334,10.5475 25.5299,18.7132 8.0438,8.3181 12.6304,14.908 17.5297,25.186 6.9681,14.618 10.1168,31.4395 8.763,46.8151 -1.3259,15.0594 -3.8823,23.4702 -12.0617,39.6849 -6.3347,12.5578 -9.1555,20.1245 -11.0902,29.75 -1.0118,5.0337 -1.1558,7.2137 -1.1558,17.5 0,10.2863 0.144,12.4663 1.1558,17.5 1.9347,9.6255 4.7555,17.1922 11.0902,29.75 8.183,16.2218 10.8331,24.9411 12.071,39.715 0.4416,5.271 0.4394,8.5046 -0.01,13.6001 -1.326,15.0594 -3.8823,23.4702 -12.0618,39.6849 -6.3347,12.5578 -9.1554,20.1246 -11.0902,29.75 -1.0118,5.0337 -1.1558,7.2137 -1.1558,17.5 0,10.2863 0.144,12.4663 1.1558,17.5 1.9348,9.6255 4.7555,17.1922 11.0902,29.75 8.1831,16.2218 10.8332,24.9411 12.071,39.715 0.4416,5.271 0.4394,8.5046 -0.01,13.6001 -1.3259,15.0594 -3.8823,23.4702 -12.0617,39.6849 -6.3347,12.5578 -9.1555,20.1246 -11.0902,29.75 -1.0118,5.0337 -1.1558,7.2137 -1.1558,17.5 0,10.2863 0.144,12.4663 1.1558,17.5 1.9347,9.6255 4.7555,17.1922 11.0902,29.75 8.184,16.2238 10.8331,24.9406 12.0715,39.7209 1.9003,22.681 -5.7157,47.2473 -20.2485,65.3144 -4.4355,5.5142 -13.1663,13.7687 -18.8556,17.8268 -5.8579,4.1785 -16.5879,9.7361 -23.2718,12.0538 -9.7124,3.3679 -21.1181,5.3341 -30.9416,5.3341 -29.2988,0 -57.4023,14.0181 -74.9998,37.4101 -1.4284,1.8988 -4.2258,6.0773 -6.2166,9.2857 -4.9585,7.9914 -8.8471,13.1263 -13.9554,18.4281 -13.5598,14.0737 -30.8853,23.362 -50.5782,27.1153 -2.3375,0.4455 -9.875,1.1194 -16.75,1.4977 -20.9483,1.1524 -33.3754,4.5983 -48.0001,13.3101 -13.6271,8.1174 -23.7366,18.3708 -33.2835,33.7572 -1.9908,3.2084 -4.7883,7.3869 -6.2166,9.2857 -17.6084,23.4065 -45.6829,37.4101 -74.9998,37.4101 -13.9732,0 -28.8903,3.5413 -41.5,9.8521 -10.1815,5.0956 -17.6863,10.6171 -25.7794,18.9669 -5.5052,5.6797 -9.1581,10.4618 -13.5687,17.7629 -14.7318,24.3863 -36.5576,39.971 -63.6519,45.4507 -4.4902,0.9081 -7.4738,1.1351 -16.25,1.2364 -5.9125,0.068 -11.5375,0.024 -12.5,-0.1 z"
       id="path255"
       sodipodi:nodetypes="csssssssssssssssssssssssscsssssscsssssssccsscssssscsssscssssssssssssssscsssssssssssscsssssscssssssssssssssssscsssssscc" />
  </g>
  <g
     inkscape:groupmode="layer"
     id="layer6"
     inkscape:label="Layer 2"
     style="display:inline">
    <path
       style="display:inline;fill:#92ab9c;stroke-width:0.5"
       d="m 664.2001,1142.9667 c -4.926,-0.6294 -14.4014,-2.8416 -19.0292,-4.4425 -22.1401,-7.6591 -38.4905,-21.1443 -51.657,-42.6046 -4.8312,-7.8745 -7.3861,-11.1854 -13.5488,-17.5583 -17.624,-18.2249 -41.8808,-28.564 -67.015,-28.564 -26.6847,0 -52.9543,-11.8357 -70.3144,-31.68 -3.8321,-4.3805 -6.4872,-8.1192 -13.5429,-19.07 -13.913,-21.5934 -35.4778,-36.2565 -60.6717,-41.254 -2.7764,-0.5508 -9.1651,-1.2082 -14.471,-1.4893 -13.6154,-0.7211 -19.1363,-1.3964 -26.5,-3.2414 -38.02831,-9.5283 -66.10007,-42.0349 -70.23974,-81.3366 -1.33911,-12.7133 0.14422,-26.0954 4.32554,-39.0237 1.15406,-3.5682 3.80489,-9.5296 7.18366,-16.155 5.86063,-11.4921 8.24813,-17.3749 10.14613,-25 2.24746,-9.0291 2.58453,-12.0287 2.58453,-23 0,-10.9713 -0.33707,-13.9709 -2.58453,-23 -1.89801,-7.6251 -4.2855,-13.5079 -10.14613,-25 -5.65486,-11.0886 -8.22619,-17.9508 -10.01452,-26.7263 -2.63377,-12.9241 -2.62513,-24.9304 0.0274,-38.1187 1.73893,-8.6458 4.33108,-15.5641 9.98711,-26.655 7.248,-14.2126 9.89194,-21.6112 12.06068,-33.75 0.89837,-5.0283 0.89837,-23.4716 0,-28.5 -2.16874,-12.1387 -4.81268,-19.5374 -12.06068,-33.75 -5.65486,-11.0886 -8.22619,-17.9508 -10.01451,-26.7263 -9.32957,-45.781 15.74491,-90.7327 59.74518,-107.1067 9.67248,-3.5996 18.02978,-4.9937 35.49988,-5.9221 5.2963,-0.2814 11.6996,-0.9411 14.471,-1.4908 25.1939,-4.9975 46.7587,-19.6607 60.6717,-41.2541 7.0557,-10.9508 9.7108,-14.6895 13.5429,-19.07 17.3747,-19.861 43.6073,-31.68003 70.3144,-31.68003 25.1132,0 49.4057,-10.35432 67.015,-28.564 6.1627,-6.37284 8.7176,-9.6838 13.5488,-17.5583 5.0254,-8.19093 9.9851,-14.6502 15.4552,-20.12766 12.865,-12.88258 29.237,-21.67769 47.7018,-25.62559 5.805,-1.24113 7.1855,-1.34374 18.2792,-1.35849 10.6203,-0.0141 12.6612,0.11779 17.74997,1.14728 18.8418,3.81175 35.6191,12.70698 48.731,25.8368 5.4701,5.47747 10.4299,11.93673 15.4552,20.12766 4.8312,7.8745 7.3861,11.18546 13.5488,17.5583 17.6093,18.20968 41.9018,28.564 67.015,28.564 29.3018,0 57.4005,14.01574 74.9998,37.41013 1.4284,1.8987 4.2258,6.0773 6.2166,9.2857 4.9584,7.9914 8.8471,13.1263 13.9554,18.4281 14.3268,14.8697 33.3634,24.6376 53.758,27.5838 2.7886,0.4028 8.8952,0.8766 13.5702,1.0528 19.31493,0.728 33.08033,4.4902 47.51763,12.9871 31.3911,18.4746 49.5987,54.388 45.7035,90.1471 -1.4429,13.2467 -4.2744,22.2055 -11.4904,36.3553 -5.8606,11.4921 -8.2481,17.3749 -10.1461,25 -2.2475,9.0291 -2.5846,12.0287 -2.5846,23 0,10.9713 0.3371,13.9709 2.5846,23 1.898,7.6251 4.2855,13.5079 10.1461,25 5.6548,11.0886 8.2262,17.9509 10.0145,26.7264 2.6338,12.9241 2.6251,24.9304 -0.028,38.1186 -1.7389,8.6458 -4.331,15.5641 -9.9871,26.655 -7.248,14.2126 -9.8919,21.6113 -12.0606,33.75 -0.8984,5.0284 -0.8984,23.4717 0,28.5 2.1687,12.1388 4.8126,19.5374 12.0606,33.75 5.6549,11.0886 8.2262,17.9509 10.0146,26.7264 9.3295,45.7809 -15.745,90.7326 -59.7452,107.1067 -9.6588,3.5943 -18.1732,5.0173 -35.25003,5.891 -14.782,0.7562 -25.8605,3.4742 -37.6125,9.2278 -17.2258,8.4336 -29.2808,19.6479 -40.4211,37.6023 -1.9908,3.2084 -4.7883,7.387 -6.2166,9.2857 -17.5883,23.3799 -45.7162,37.4101 -74.9998,37.4101 -25.1132,0 -49.4057,10.3543 -67.015,28.564 -6.1627,6.3729 -8.7176,9.6838 -13.5488,17.5583 -5.0253,8.191 -9.9851,14.6502 -15.4552,20.1277 -13.0446,13.0624 -29.8952,22.0237 -48.481,25.7826 -4.49017,0.9082 -7.47377,1.1352 -16.24997,1.2364 -5.9125,0.068 -11.5375,0.024 -12.5,-0.1 z"
       id="path253-7"
       sodipodi:nodetypes="cssssssscssssssssssssssssscscssscsssssssscssssssssssscsssscsssscsssssscc" />
  </g>
  <g
     inkscape:groupmode="layer"
     id="layer5"
     inkscape:label="Center"
     style="display:inline">
    <path
       style="display:inline;fill:#5e7065;stroke-width:0.5"
       d="m 665.1,955.2397 c -18.4608,-2.0821 -36.0577,-9.6326 -50.2989,-21.5824 -8.01203,-6.7229 -13.76353,-13.5367 -20.21643,-23.9505 -2.2703,-3.6638 -5.4967,-8.4622 -7.1699,-10.663 -9.5878,-12.6118 -23.2019,-23.2065 -37.7326,-29.3645 -11.8943,-5.0407 -19.9744,-6.7178 -36.8322,-7.6452 -6.875,-0.3782 -14.4125,-1.0508 -16.75,-1.4946 -18.39,-3.4915 -34.97,-12.0002 -48.1831,-24.7272 -24.9678,-24.0492 -34.5706,-60.0006 -24.9131,-93.27 2.1053,-7.2526 3.6402,-10.8712 9.1196,-21.5 8.9069,-17.2776 11.9766,-29.1317 11.9766,-46.25 0,-17.397 -2.9919,-28.7195 -12.4949,-47.2848 -5.7589,-11.2507 -8.5992,-18.8492 -10.4534,-27.9652 -6.3599,-31.2681 3.7411,-63.5877 26.8244,-85.8282 10.1983,-9.8261 22.0362,-16.9454 35.6513,-21.4405 8.9468,-2.954 15.1311,-3.9541 29.2226,-4.726 16.8549,-0.9233 24.9322,-2.5992 36.8322,-7.6423 11.3251,-4.7994 22.3842,-12.4683 30.9295,-21.448 5.2247,-5.4903 8.8539,-10.2706 13.2304,-17.4268 6.3888,-10.4466 11.9194,-17.221 19.43793,-23.8092 25.0844,-21.9808 59.7941,-29.0642 91.2483,-18.6216 15.1959,5.045 30.4303,15.1024 40.5715,26.7844 4.4701,5.1492 7.0195,8.6894 11.3038,15.6968 11.0163,18.0183 25.5672,30.8461 43.9243,38.7229 11.9114,5.111 20.0549,6.8144 37.0221,7.7438 8.0958,0.4435 14.4282,1.0606 17.9727,1.7516 37.0749,7.2277 66.1713,36.1697 73.7499,73.3587 1.7015,8.3492 2.2642,17.1905 1.5952,25.0634 -1.2377,14.5646 -4.238,24.4512 -12.0626,39.7485 -9.5119,18.5959 -12.5052,29.9231 -12.5052,47.3225 0,17.3971 2.992,28.7195 12.4949,47.2848 7.7805,15.2002 10.8234,25.2086 12.0821,39.7391 1.3264,15.3112 -1.9913,32.5902 -9.0678,47.2261 -11.1964,23.1569 -30.6872,40.2526 -55.0365,48.2732 -8.9601,2.9514 -15.1419,3.9502 -29.2227,4.7215 -16.8549,0.9233 -24.9322,2.5993 -36.8322,7.6423 -14.5307,6.158 -28.1448,16.7527 -37.7326,29.3645 -1.6732,2.2008 -4.8996,6.9992 -7.1699,10.663 -6.4528,10.4138 -12.2043,17.2276 -20.2164,23.9505 -19.5625,16.4149 -45.5032,24.3789 -70.2989,21.5824 z"
       id="path247-4"
       sodipodi:nodetypes="ssscssssssssssssssssssssssssssssssssssss" />
  </g>
  <g
     inkscape:groupmode="layer"
     id="layer2"
     inkscape:label="Circles"
     style="display:inline">
    <path
       d="m 1169,458.7548 c 5.8691,-0.6523 10.1061,-1.6162 15.5606,-3.5401 21.7675,-7.6775 38.3135,-27.2447 42.4523,-50.2037 1.0688,-5.929 1.0688,-17.0666 0,-22.9956 -2.3587,-13.0842 -8.7595,-25.2803 -18.2471,-34.7679 -7.1059,-7.1059 -15.1595,-12.2454 -24.1667,-15.4223 -24.7281,-8.7217 -51.1505,-2.5708 -69.2268,16.1153 -24.7795,25.6155 -24.7795,65.5299 0,91.1454 14.1182,14.5945 33.9246,21.8589 53.6277,19.6689 z"
       style="fill:#ffffff;fill-opacity:1;stroke-width:0.5"
       id="path4393" />
    <path
       d="m 1169,646.2549 c 5.8691,-0.6523 10.1061,-1.6162 15.5606,-3.5401 21.7675,-7.6775 38.3135,-27.2447 42.4523,-50.2037 1.0688,-5.929 1.0688,-17.0666 0,-22.9956 -2.3587,-13.0842 -8.7595,-25.2803 -18.2471,-34.7679 -7.1059,-7.1059 -15.1595,-12.2454 -24.1667,-15.4223 -24.7281,-8.7217 -51.1505,-2.5708 -69.2268,16.1153 -24.7795,25.6155 -24.7795,65.5299 0,91.1454 14.1182,14.5945 33.9246,21.8589 53.6277,19.6689 z"
       style="fill:#ffffff;fill-opacity:1;stroke-width:0.5"
       id="path4393-3" />
    <path
       d="m 1169,833.7549 c 5.8691,-0.6523 10.1061,-1.6162 15.5606,-3.5401 21.7675,-7.6775 38.3135,-27.2447 42.4523,-50.2037 1.0688,-5.929 1.0688,-17.0666 0,-22.9956 -2.3587,-13.0842 -8.7595,-25.2803 -18.2471,-34.7679 -7.1059,-7.1059 -15.1595,-12.2454 -24.1667,-15.4223 -24.7281,-8.7217 -51.1505,-2.5708 -69.2268,16.1153 -24.7795,25.6155 -24.7795,65.5299 0,91.1454 14.1182,14.5945 33.9246,21.8589 53.6277,19.6689 z"
       style="fill:#ffffff;fill-opacity:1;stroke-width:0.5"
       id="path4393-31" />
    <path
       d="m 1169,1021.2549 c 5.8691,-0.6523 10.1061,-1.6162 15.5606,-3.5401 21.7675,-7.6775 38.3135,-27.2447 42.4523,-50.2037 1.0688,-5.929 1.0688,-17.0666 0,-22.9956 -2.3587,-13.0842 -8.7595,-25.2803 -18.2471,-34.7679 -7.1059,-7.1059 -15.1595,-12.2454 -24.1667,-15.4223 -24.7281,-8.7217 -51.1505,-2.5708 -69.2268,16.1153 -24.7795,25.6155 -24.7795,65.5299 0,91.1454 14.1182,14.5945 33.9246,21.8589 53.6277,19.6689 z"
       style="fill:#ffffff;fill-opacity:1;stroke-width:0.5"
       id="path4393-6" />
    <path
       d="m 844.7768,1207.7577 c 5.8691,-0.6523 10.1061,-1.6162 15.5606,-3.5401 21.7675,-7.6775 38.3135,-27.2447 42.4523,-50.2037 1.0688,-5.929 1.0688,-17.0666 0,-22.9956 -2.3587,-13.0842 -8.7595,-25.2803 -18.2471,-34.7679 -7.1059,-7.1059 -15.1595,-12.2454 -24.1667,-15.4223 -24.7281,-8.7217 -51.1505,-2.5708 -69.2268,16.1153 -24.7795,25.6155 -24.7795,65.5299 0,91.1454 14.1182,14.5945 33.9246,21.8589 53.6277,19.6689 z"
       style="fill:#ffffff;fill-opacity:1;stroke-width:0.5"
       id="path4393-5" />
    <path
       d="m 682.75,1301.5139 c 5.8691,-0.6523 10.1061,-1.6162 15.5606,-3.5401 21.7675,-7.6775 38.3135,-27.2447 42.4523,-50.2037 1.0688,-5.929 1.0688,-17.0666 0,-22.9956 -2.3587,-13.0842 -8.7595,-25.2803 -18.2471,-34.7679 -7.1059,-7.1059 -15.1595,-12.2454 -24.1667,-15.4223 -24.7281,-8.7217 -51.1505,-2.5708 -69.2268,16.1153 -24.7795,25.6155 -24.7795,65.5299 0,91.1454 14.1182,14.5945 33.9246,21.8589 53.6277,19.6689 z"
       style="fill:#ffffff;fill-opacity:1;stroke-width:0.5"
       id="path4393-7" />
    <path
       d="m 682.3174,1114.2679 c 5.8691,-0.6523 10.1061,-1.6162 15.5606,-3.5401 21.7675,-7.6775 38.3135,-27.2447 42.4523,-50.2037 1.0688,-5.929 1.0688,-17.0666 0,-22.9956 -2.3587,-13.0842 -8.7595,-25.2803 -18.2471,-34.7679 -7.1059,-7.10592 -15.1595,-12.24542 -24.1667,-15.42232 -24.7281,-8.7217 -51.1505,-2.5708 -69.2268,16.11532 -24.7795,25.6155 -24.7795,65.5299 0,91.1454 14.1182,14.5945 33.9246,21.8589 53.6277,19.6689 z"
       style="fill:#ffffff;fill-opacity:1;stroke-width:0.5"
       id="path4393-39" />
    <path
       d="m 1006.7869,1114.4721 c 5.8691,-0.6523 10.1061,-1.6162 15.5606,-3.5401 21.7675,-7.6775 38.3135,-27.2448 42.4523,-50.2038 1.0688,-5.929 1.0688,-17.0666 0,-22.9956 -2.3587,-13.0842 -8.7595,-25.2803 -18.2471,-34.7679 -7.1059,-7.1059 -15.1595,-12.2454 -24.1667,-15.4223 -24.7281,-8.7217 -51.1505,-2.5708 -69.2268,16.1153 -24.7795,25.6155 -24.7795,65.5299 0,91.1455 14.1182,14.5945 33.9246,21.8589 53.6277,19.6689 z"
       style="fill:#ffffff;fill-opacity:1;stroke-width:0.5"
       id="path4393-53" />
    <path
       d="m 1005.7522,927.0684 c 5.8691,-0.6523 10.1061,-1.6162 15.5606,-3.5401 21.7675,-7.6775 38.3135,-27.2447 42.4523,-50.2037 1.0688,-5.929 1.0688,-17.0666 0,-22.9956 -2.3587,-13.0842 -8.7595,-25.2803 -18.2471,-34.7679 -7.1059,-7.1059 -15.1595,-12.2454 -24.1667,-15.4223 -24.7281,-8.7217 -51.15046,-2.5708 -69.22676,16.1153 -24.7795,25.6155 -24.7795,65.5299 0,91.1454 14.1182,14.5945 33.92456,21.8589 53.62766,19.6689 z"
       style="fill:#ffffff;fill-opacity:1;stroke-width:0.5"
       id="path4393-0" />
    <path
       d="m 843.7006,1020.3659 c 5.8691,-0.6523 10.1061,-1.6162 15.5606,-3.5401 21.7675,-7.6775 38.3135,-27.24465 42.4523,-50.20365 1.0688,-5.929 1.0688,-17.0666 0,-22.9956 -2.3587,-13.0842 -8.7595,-25.2803 -18.2471,-34.7679 -7.1059,-7.1059 -15.1595,-12.2454 -24.1667,-15.4223 -24.7281,-8.7217 -51.1505,-2.5708 -69.2268,16.1153 -24.7795,25.6155 -24.7795,65.5299 0,91.14545 14.1182,14.5944 33.9246,21.8588 53.6277,19.6688 z"
       style="fill:#ffffff;fill-opacity:1;stroke-width:0.5"
       id="path4393-05" />
    <path
       d="m 1005.7518,739.5684 c 5.8691,-0.6523 10.1061,-1.6162 15.5606,-3.5401 21.7675,-7.6775 38.3135,-27.2447 42.4523,-50.2037 1.0688,-5.929 1.0688,-17.0666 0,-22.9956 -2.3587,-13.0842 -8.7595,-25.2803 -18.2471,-34.7679 -7.1059,-7.1059 -15.1595,-12.2454 -24.1667,-15.4223 -24.7281,-8.7217 -51.1505,-2.5708 -69.2268,16.1153 -24.7795,25.6155 -24.7795,65.5299 0,91.1454 14.1182,14.5945 33.9246,21.8589 53.6277,19.6689 z"
       style="fill:#ffffff;fill-opacity:1;stroke-width:0.5"
       id="path4393-52" />
    <path
       d="m 1005.7519,552.0684 c 5.8691,-0.6523 10.1061,-1.6162 15.5606,-3.5401 21.7675,-7.6775 38.3135,-27.2447 42.4523,-50.2037 1.0688,-5.929 1.0688,-17.0666 0,-22.9956 -2.3587,-13.0842 -8.7595,-25.2803 -18.2471,-34.7679 -7.1059,-7.1059 -15.1595,-12.2454 -24.1667,-15.4223 -24.7281,-8.7217 -51.15051,-2.5708 -69.22681,16.1153 -24.7795,25.6155 -24.7795,65.5299 0,91.1454 14.1182,14.5945 33.9246,21.8589 53.62771,19.6689 z"
       style="fill:#ffffff;fill-opacity:1;stroke-width:0.5"
       id="path4393-68" />
    <path
       d="m 1006.7869,364.4721 c 5.869,-0.6523 10.1061,-1.6162 15.5606,-3.5401 21.7675,-7.6775 38.3135,-27.2447 42.4523,-50.2037 1.0688,-5.929 1.0688,-17.0666 0,-22.9956 -2.3587,-13.0842 -8.7595,-25.2803 -18.2471,-34.7679 -7.1059,-7.1059 -15.1595,-12.2454 -24.1667,-15.4223 -24.7282,-8.7217 -51.15055,-2.5708 -69.22685,16.1153 -24.7795,25.6155 -24.7795,65.5299 0,91.1454 14.1182,14.5945 33.9246,21.8589 53.62775,19.6689 z"
       style="fill:#ffffff;fill-opacity:1;stroke-width:0.5"
       id="path4393-4" />
    <path
       d="m 844.7768,270.2577 c 5.8691,-0.6523 10.1061,-1.6162 15.5606,-3.5401 21.76751,-7.6775 38.31351,-27.2447 42.45231,-50.2037 1.0688,-5.929 1.0688,-17.0666 0,-22.9956 -2.3587,-13.0842 -8.7595,-25.2803 -18.2471,-34.7679 -7.1059,-7.1059 -15.15951,-12.2454 -24.16671,-15.4223 -24.7281,-8.7217 -51.1505,-2.5708 -69.2268,16.1153 -24.7795,25.6155 -24.7795,65.5299 0,91.1454 14.1182,14.5945 33.9246,21.8589 53.6277,19.6689 z"
       style="fill:#ffffff;fill-opacity:1;stroke-width:0.5"
       id="path4393-8" />
    <path
       d="m 843.7006,457.8664 c 5.8691,-0.6523 10.1061,-1.6162 15.5606,-3.5401 21.7675,-7.6775 38.3135,-27.2447 42.4523,-50.2037 1.0688,-5.929 1.0688,-17.0666 0,-22.9956 -2.3587,-13.0842 -8.7595,-25.2803 -18.2471,-34.7679 -7.1059,-7.1059 -15.1595,-12.2454 -24.1667,-15.4223 -24.7281,-8.7217 -51.1505,-2.5708 -69.2268,16.1153 -24.7795,25.6155 -24.7795,65.5299 0,91.1454 14.1182,14.5945 33.9246,21.8589 53.6277,19.6689 z"
       style="fill:#ffffff;fill-opacity:1;stroke-width:0.5"
       id="path4393-9" />
    <path
       d="m 844.1371,645.7941 c 5.8691,-0.6523 10.1061,-1.6162 15.5606,-3.5401 21.7675,-7.6775 38.3135,-27.2447 42.4523,-50.2037 1.0688,-5.929 1.0688,-17.0666 0,-22.9956 -2.3587,-13.0842 -8.7595,-25.2803 -18.2471,-34.7679 -7.1059,-7.1059 -15.1595,-12.2454 -24.1667,-15.4223 -24.7281,-8.7217 -51.1505,-2.5708 -69.2268,16.1153 -24.7795,25.6155 -24.7795,65.5299 0,91.1454 14.1182,14.5945 33.9246,21.8589 53.6277,19.6689 z"
       style="fill:#ffffff;fill-opacity:1;stroke-width:0.5"
       id="path4393-30" />
    <path
       d="m 844.1381,833.2941 c 5.8691,-0.6523 10.1061,-1.6162 15.5606,-3.5401 21.7675,-7.6775 38.3135,-27.2447 42.4523,-50.2037 1.0688,-5.929 1.0688,-17.0666 0,-22.9956 -2.3587,-13.0842 -8.7595,-25.2803 -18.2471,-34.7679 -7.1059,-7.1059 -15.1595,-12.2454 -24.1667,-15.4223 -24.7281,-8.7217 -51.1505,-2.5708 -69.2268,16.1153 -24.7795,25.6155 -24.7795,65.5299 0,91.1454 14.1182,14.5945 33.9246,21.8589 53.6277,19.6689 z"
       style="fill:#ffffff;fill-opacity:1;stroke-width:0.5"
       id="path4393-77" />
    <path
       d="m 682.35,927.053 c 5.8691,-0.6523 10.1061,-1.6162 15.5606,-3.5401 21.7675,-7.6775 38.3135,-27.2447 42.4523,-50.2037 1.0688,-5.929 1.0688,-17.06656 0,-22.99556 -2.3587,-13.0842 -8.7595,-25.2803 -18.2471,-34.7679 -7.1059,-7.1059 -15.1595,-12.2454 -24.1667,-15.4223 -24.7281,-8.7217 -51.1505,-2.5708 -69.2268,16.1153 -24.7795,25.6155 -24.7795,65.52986 0,91.14536 14.1182,14.5945 33.9246,21.8589 53.6277,19.6689 z"
       style="fill:#ffffff;fill-opacity:1;stroke-width:0.5"
       id="path4393-32" />
    <path
       d="m 680.8951,739.5055 c 5.8691,-0.6523 10.1061,-1.6162 15.5606,-3.5401 21.7675,-7.6775 38.3135,-27.2447 42.4523,-50.2037 1.0688,-5.929 1.0688,-17.0666 0,-22.9956 -2.3587,-13.0842 -8.7595,-25.2803 -18.2471,-34.7679 -7.1059,-7.1059 -15.1595,-12.2454 -24.1667,-15.4223 -24.7281,-8.7217 -51.1505,-2.5708 -69.2268,16.1153 -24.7795,25.6155 -24.7795,65.5299 0,91.1454 14.1182,14.5945 33.9246,21.8589 53.6277,19.6689 z"
       style="fill:#ffffff;fill-opacity:1;stroke-width:0.5"
       id="path4393-93" />
    <path
       d="m 682.35,552.053 c 5.8691,-0.6523 10.1061,-1.6162 15.5606,-3.5401 21.7675,-7.6775 38.3135,-27.2447 42.4523,-50.2037 1.0688,-5.929 1.0688,-17.0666 0,-22.9956 -2.3587,-13.0842 -8.7595,-25.2803 -18.2471,-34.7679 -7.1059,-7.1059 -15.1595,-12.2454 -24.1667,-15.4223 -24.7281,-8.7217 -51.1505,-2.5708 -69.2268,16.1153 -24.7795,25.6155 -24.7795,65.5299 0,91.1454 14.1182,14.5945 33.9246,21.8589 53.6277,19.6689 z"
       style="fill:#ffffff;fill-opacity:1;stroke-width:0.5"
       id="path4393-16" />
    <path
       d="m 682.3174,364.2679 c 5.8691,-0.6523 10.1061,-1.6162 15.5606,-3.5401 21.7675,-7.6775 38.3135,-27.2447 42.4523,-50.2037 1.0688,-5.929 1.0688,-17.0666 0,-22.9956 -2.3587,-13.0842 -8.7595,-25.2803 -18.2471,-34.7679 -7.1059,-7.1059 -15.1595,-12.2454 -24.1667,-15.4223 -24.7281,-8.7217 -51.1505,-2.5708 -69.2268,16.1153 -24.7795,25.6155 -24.7795,65.5299 0,91.1454 14.1182,14.5945 33.9246,21.8589 53.6277,19.6689 z"
       style="fill:#ffffff;fill-opacity:1;stroke-width:0.5"
       id="path4393-2" />
    <path
       d="m 682.75,176.51383 c 5.8691,-0.6523 10.1061,-1.6162 15.5606,-3.5401 21.7675,-7.6775 38.3135,-27.2447 42.4523,-50.2037 1.0688,-5.929 1.0688,-17.0666 0,-22.9956 -2.3587,-13.0842 -8.7595,-25.2803 -18.2471,-34.7679 -7.1059,-7.1059 -15.1595,-12.2454 -24.1667,-15.4223 -24.7281,-8.7217 -51.1505,-2.5708 -69.2268,16.1153 -24.7795,25.6155 -24.7795,65.5299 0,91.1454 14.1182,14.5945 33.9246,21.8589 53.6277,19.6689 z"
       style="fill:#ffffff;fill-opacity:1;stroke-width:0.5"
       id="path4393-681" />
    <path
       d="m 519.5,271.2588 c 5.8691,-0.6523 10.1061,-1.6162 15.5606,-3.5401 21.7675,-7.6775 38.3135,-27.2447 42.4523,-50.2037 1.0688,-5.929 1.0688,-17.0666 0,-22.9956 -2.3587,-13.0842 -8.7595,-25.2803 -18.2471,-34.7679 -7.1059,-7.1059 -15.1595,-12.2454 -24.1667,-15.4223 -24.7281,-8.7217 -51.1505,-2.5708 -69.2268,16.1153 -24.7795,25.6155 -24.7795,65.5299 0,91.1454 14.1182,14.5945 33.9246,21.8589 53.6277,19.6689 z"
       style="fill:#ffffff;fill-opacity:1;stroke-width:0.5"
       id="path4393-08" />
    <path
       d="m 520.2006,458.0463 c 5.8691,-0.6523 10.1061,-1.6162 15.5606,-3.5401 21.7675,-7.6775 38.3135,-27.2447 42.4523,-50.2037 1.0688,-5.929 1.0688,-17.0666 0,-22.9956 -2.3587,-13.0842 -8.7595,-25.2803 -18.2471,-34.7679 -7.1059,-7.1059 -15.1595,-12.2454 -24.1667,-15.4223 -24.7281,-8.7217 -51.1505,-2.5708 -69.2268,16.1153 -24.7795,25.6155 -24.7795,65.5299 0,91.1454 14.1182,14.5945 33.9246,21.8589 53.6277,19.6689 z"
       style="fill:#ffffff;fill-opacity:1;stroke-width:0.5"
       id="path4393-15" />
    <path
       d="m 518.5978,645.9771 c 5.8691,-0.6523 10.1061,-1.6162 15.5606,-3.5401 21.7675,-7.6775 38.3135,-27.2447 42.4523,-50.2037 1.0688,-5.929 1.0688,-17.0666 0,-22.9956 -2.3587,-13.0842 -8.7595,-25.2803 -18.2471,-34.7679 -7.1059,-7.1059 -15.1595,-12.2454 -24.1667,-15.4223 -24.7281,-8.7217 -51.1505,-2.5708 -69.2268,16.1153 -24.7795,25.6155 -24.7795,65.5299 0,91.1454 14.1182,14.5945 33.9246,21.8589 53.6277,19.6689 z"
       style="fill:#ffffff;fill-opacity:1;stroke-width:0.5"
       id="path4393-12" />
    <path
       d="m 518.5978,833.4772 c 5.8691,-0.6523 10.1061,-1.6162 15.5606,-3.5401 21.7675,-7.6775 38.3135,-27.2447 42.4523,-50.2037 1.0688,-5.929 1.0688,-17.0666 0,-22.9956 -2.3587,-13.0842 -8.7595,-25.2803 -18.2471,-34.7679 -7.1059,-7.1059 -15.1595,-12.2454 -24.1667,-15.4223 -24.7281,-8.7217 -51.1505,-2.5708 -69.2268,16.1153 -24.7795,25.6155 -24.7795,65.5299 0,91.1454 14.1182,14.5945 33.9246,21.8589 53.6277,19.6689 z"
       style="fill:#ffffff;fill-opacity:1;stroke-width:0.5"
       id="path4393-74" />
    <path
       d="m 520.2006,1020.5462 c 5.8691,-0.6523 10.1061,-1.6162 15.5606,-3.5401 21.7675,-7.6775 38.3135,-27.2447 42.4523,-50.20366 1.0688,-5.929 1.0688,-17.0666 0,-22.9956 -2.3587,-13.0842 -8.7595,-25.2803 -18.2471,-34.7679 -7.1059,-7.1059 -15.1595,-12.2454 -24.1667,-15.4223 -24.7281,-8.7217 -51.1505,-2.5708 -69.2268,16.1153 -24.7795,25.6155 -24.7795,65.5299 0,91.14536 14.1182,14.5945 33.9246,21.8589 53.6277,19.6689 z"
       style="fill:#ffffff;fill-opacity:1;stroke-width:0.5"
       id="path4393-19" />
    <path
       d="m 519.5,1208.7588 c 5.8691,-0.6523 10.1061,-1.6162 15.5606,-3.5401 21.7675,-7.6775 38.3135,-27.2447 42.4523,-50.2037 1.0688,-5.929 1.0688,-17.0666 0,-22.9956 -2.3587,-13.0842 -8.7595,-25.2803 -18.2471,-34.7679 -7.1059,-7.1059 -15.1595,-12.2454 -24.1667,-15.4223 -24.7281,-8.7217 -51.1505,-2.5708 -69.2268,16.1153 -24.7795,25.6155 -24.7795,65.5299 0,91.1454 14.1182,14.5945 33.9246,21.8589 53.6277,19.6689 z"
       style="fill:#ffffff;fill-opacity:1;stroke-width:0.5"
       id="path4393-748" />
    <path
       d="m 357.2869,1114.4694 c 5.8691,-0.6523 10.1061,-1.6162 15.5606,-3.5401 21.7675,-7.6775 38.3135,-27.2447 42.4523,-50.2037 1.0688,-5.929 1.0688,-17.0666 0,-22.9956 -2.3587,-13.0842 -8.7595,-25.2803 -18.2471,-34.7679 -7.1059,-7.1059 -15.1595,-12.2454 -24.1667,-15.4223 -24.7281,-8.7217 -51.1505,-2.5708 -69.2268,16.1153 -24.7795,25.6155 -24.7795,65.5299 0,91.1454 14.1182,14.5945 33.9246,21.8589 53.6277,19.6689 z"
       style="fill:#ffffff;fill-opacity:1;stroke-width:0.5"
       id="path4393-122" />
    <path
       d="m 357.0953,927.7704 c 5.8691,-0.6523 10.1061,-1.6162 15.5606,-3.5401 21.7675,-7.6775 38.3135,-27.2447 42.4523,-50.2037 1.0688,-5.929 1.0688,-17.0666 0,-22.9956 -2.3587,-13.0842 -8.7595,-25.2803 -18.2471,-34.7679 -7.1059,-7.1059 -15.1595,-12.2454 -24.1667,-15.4223 -24.7281,-8.7217 -51.1505,-2.5708 -69.2268,16.1153 -24.7795,25.6155 -24.7795,65.5299 0,91.1454 14.1182,14.5945 33.9246,21.8589 53.6277,19.6689 z"
       style="fill:#ffffff;fill-opacity:1;stroke-width:0.5"
       id="path4393-73" />
    <path
       d="m 357.0957,740.2704 c 5.8691,-0.6523 10.1061,-1.6162 15.5606,-3.5401 21.7675,-7.6775 38.3135,-27.2447 42.4523,-50.2037 1.0688,-5.929 1.0688,-17.0666 0,-22.9956 -2.3587,-13.0842 -8.7595,-25.2803 -18.2471,-34.7679 -7.1059,-7.1059 -15.1595,-12.2454 -24.1667,-15.4223 -24.7281,-8.7217 -51.1505,-2.5708 -69.2268,16.1153 -24.7795,25.6155 -24.7795,65.5299 0,91.1454 14.1182,14.5945 33.9246,21.8589 53.6277,19.6689 z"
       style="fill:#ffffff;fill-opacity:1;stroke-width:0.5"
       id="path4393-10" />
    <path
       d="m 357.0954,552.7704 c 5.8691,-0.6523 10.1061,-1.6162 15.5606,-3.5401 21.7675,-7.6775 38.3135,-27.2447 42.4523,-50.2037 1.0688,-5.929 1.0688,-17.0666 0,-22.9956 -2.3587,-13.0842 -8.7595,-25.2803 -18.2471,-34.7679 -7.1059,-7.1059 -15.1595,-12.2454 -24.1667,-15.4223 -24.7281,-8.7217 -51.1505,-2.5708 -69.2268,16.1153 -24.7795,25.6155 -24.7795,65.5299 0,91.1454 14.1182,14.5945 33.9246,21.8589 53.6277,19.6689 z"
       style="fill:#ffffff;fill-opacity:1;stroke-width:0.5"
       id="path4393-18" />
    <path
       d="m 357.2869,364.4694 c 5.8691,-0.6523 10.1061,-1.6162 15.5606,-3.5401 21.7675,-7.6775 38.3135,-27.2447 42.4523,-50.2037 1.0688,-5.929 1.0688,-17.0666 0,-22.9956 -2.3587,-13.0842 -8.7595,-25.2803 -18.2471,-34.7679 -7.1059,-7.1059 -15.1595,-12.2454 -24.1667,-15.4223 -24.7281,-8.7217 -51.1505,-2.5708 -69.2268,16.1153 -24.7795,25.6155 -24.7795,65.5299 0,91.1454 14.1182,14.5945 33.9246,21.8589 53.6277,19.6689 z"
       style="fill:#ffffff;fill-opacity:1;stroke-width:0.5"
       id="path4393-87" />
    <path
       d="m 195.27681,457.7582 c 5.8691,-0.6523 10.1061,-1.6162 15.5606,-3.5401 21.7675,-7.6775 38.3135,-27.2447 42.4523,-50.2037 1.0688,-5.929 1.0688,-17.0666 0,-22.9956 -2.3587,-13.0842 -8.7595,-25.2803 -18.2471,-34.7679 -7.1059,-7.1059 -15.1595,-12.2454 -24.1667,-15.4223 -24.7281,-8.7217 -51.1505,-2.5708 -69.2268,16.1153 -24.7795,25.6155 -24.7795,65.5299 0,91.1454 14.1182,14.5945 33.9246,21.8589 53.6277,19.6689 z"
       style="fill:#ffffff;fill-opacity:1;stroke-width:0.5"
       id="path4393-50" />
    <path
       d="m 195.27681,645.2582 c 5.8691,-0.6523 10.1061,-1.6162 15.5606,-3.5401 21.7675,-7.6775 38.3135,-27.2447 42.4523,-50.2037 1.0688,-5.929 1.0688,-17.0666 0,-22.9956 -2.3587,-13.0842 -8.7595,-25.2803 -18.2471,-34.7679 -7.1059,-7.1059 -15.1595,-12.2454 -24.1667,-15.4223 -24.7281,-8.7217 -51.1505,-2.5708 -69.2268,16.1153 -24.7795,25.6155 -24.7795,65.5299 0,91.1454 14.1182,14.5945 33.9246,21.8589 53.6277,19.6689 z"
       style="fill:#ffffff;fill-opacity:1;stroke-width:0.5"
       id="path4393-98" />
    <path
       d="m 195.27681,832.7577 c 5.8691,-0.6523 10.1061,-1.6162 15.5606,-3.5401 21.7675,-7.6775 38.3135,-27.2447 42.4523,-50.2037 1.0688,-5.929 1.0688,-17.0666 0,-22.9956 -2.3587,-13.0842 -8.7595,-25.2803 -18.2471,-34.7679 -7.1059,-7.1059 -15.1595,-12.2454 -24.1667,-15.4223 -24.7281,-8.7217 -51.1505,-2.5708 -69.2268,16.1153 -24.7795,25.6155 -24.7795,65.5299 0,91.1454 14.1182,14.5945 33.9246,21.8589 53.6277,19.6689 z"
       style="fill:#ffffff;fill-opacity:1;stroke-width:0.5"
       id="path4393-56" />
    <path
       d="m 195.27681,1020.2577 c 5.8691,-0.6523 10.1061,-1.6162 15.5606,-3.5401 21.7675,-7.6775 38.3135,-27.2447 42.4523,-50.2037 1.0688,-5.929 1.0688,-17.0666 0,-22.9956 -2.3587,-13.0842 -8.7595,-25.2803 -18.2471,-34.7679 -7.1059,-7.1059 -15.1595,-12.2454 -24.1667,-15.4223 -24.7281,-8.7217 -51.1505,-2.5708 -69.2268,16.1153 -24.7795,25.6155 -24.7795,65.5299 0,91.1454 14.1182,14.5945 33.9246,21.8589 53.6277,19.6689 z"
       style="fill:#ffffff;fill-opacity:1;stroke-width:0.5"
       id="path4393-105" />
  </g>
  <g
     inkscape:groupmode="layer"
     id="layer4"
     inkscape:label="Text"
     style="display:inline">
    <path
       d="m 831.75,252.68053 c -7.38519,-1.16946 -15.36789,-4.16546 -20.58659,-7.72646 -3.2119,-2.19164 -8.275,-7.0496 -10.932,-10.48916 -4.9277,-6.37902 -8.2457,-14.70173 -9.2375,-23.1714 -1.3477,-11.50746 2.1427,-24.0741 9.2375,-33.25842 8.6223,-11.16176 20.7497,-17.51938 35.01859,-18.35795 22.4685,-1.32045 43.2015,14.75374 47.8063,37.06399 5.07,24.56453 -9.9089,48.40513 -34.4396,54.8143 -3.799,0.99257 -13.5824,1.64518 -16.8667,1.1251 z m 10.75,-46.44802 v -27.2675 l -5.125,0.1425 -5.125,0.14249 -0.1299,26.5 c -0.072,14.575 -0.023,26.78125 0.1093,27.125 0.1693,0.44256 1.7033,0.625 5.2549,0.625 H 842.5 Z"
       style="fill:#afa363;stroke-width:0.5"
       id="path7457" />
    <path
       d="m 990.5,345.8129 c -16.7711,-3.8797 -29.5644,-15.1004 -34.8351,-30.55331 -3.4257,-10.04337 -3.4257,-20.47581 0,-30.51918 5.4344,-15.93282 19.0892,-27.54068 36.2059,-30.77853 4.6545,-0.88045 15.9745,-0.33172 20.3792,0.98786 4.1602,1.24631 10.8502,4.38313 14.0642,6.5944 6.352,4.37034 12.5909,11.86308 15.973,19.1833 5.6516,12.2321 5.3895,27.85632 -0.6713,40.02256 -3.2126,6.4488 -9.4955,13.711 -15.3424,17.7338 -3.2524,2.2377 -10.8791,5.7366 -14.7735,6.7775 -4.2139,1.1263 -17.0573,1.4636 -21,0.5516 z m 27.893,-22.9268 0.143,-4.86391 -9.3918,-0.13609 -9.3918,-0.1361 5.4158,-5.75 c 8.9703,-9.52386 12.2534,-15.34157 12.6972,-22.5 0.1866,-3.01002 0.022,-4.30716 -0.8331,-6.57354 -2.8135,-7.45486 -10.4621,-11.63786 -19.0581,-10.42282 -8.3896,1.18587 -14.7966,8.05042 -15.1225,16.20242 l -0.1017,2.54394 4.4245,0.14519 c 2.6014,0.0854 4.6874,-0.073 5.0626,-0.38444 0.3509,-0.29129 0.7804,-1.41951 0.9543,-2.50714 0.411,-2.57035 2.8357,-5.32179 5.355,-6.07657 2.6748,-0.8014 5.4018,0.0625 7.4073,2.34654 1.3079,1.48963 1.5455,2.16332 1.5414,4.36882 -0.01,2.97007 -1.5656,6.77396 -4.1178,10.04044 -0.8883,1.13694 -6.2866,6.87734 -11.9962,12.75645 L 981,322.62857 v 2.35238 c 0,1.29385 0.1528,2.50515 0.3394,2.69175 0.1867,0.1867 8.5679,0.2805 18.625,0.2084 L 1018.25,327.75 Z"
       style="fill:#afa363;stroke-width:0.5"
       id="path8676" />
    <path
       d="m 1139.9871,427.625 -0.013,-3.375 12.4189,-12.25 c 7.2676,-7.1687 13.2196,-13.4797 14.3491,-15.2145 8.0832,-12.4152 7.5392,-28.3966 -1.1751,-34.5225 -1.9066,-1.3402 -2.6343,-1.5332 -6.3736,-1.6899 -3.7589,-0.1575 -4.5186,-0.031 -6.9363,1.1515 -4,1.957 -7.1842,6.484 -7.2276,10.2754 -0.028,2.3898 0.5638,2.6855 3.373,1.6878 3.1347,-1.1134 4.8277,-0.6499 6.4569,1.7677 1.6028,2.3785 1.4841,4.6183 -0.3558,6.7139 -3.3822,3.8521 -8.9376,2.2027 -11.2535,-3.3413 -1.059,-2.535 -1.042,-7.1893 0.038,-10.4524 1.2347,-3.7302 6.3333,-8.7838 10.4617,-10.3693 3.6418,-1.3986 10.3098,-1.8763 14.3841,-1.0305 6.2238,1.2921 12.0008,5.4264 14.3563,10.2741 1.6409,3.3769 1.7135,10.1026 0.1549,14.3394 -1.999,5.434 -4.4518,8.3309 -20.4652,24.1711 -8.624,8.5308 -15.6801,15.6886 -15.6801,15.9064 0,0.2177 7.3048,0.3255 16.2329,0.2395 14.3578,-0.1383 16.3291,-0.2527 17.0662,-0.9905 0.5483,-0.5488 1.0302,-2.4305 1.4084,-5.5 0.521,-4.229 0.6787,-4.6809 1.6837,-4.8257 1.3664,-0.1969 1.3902,0.5284 0.3588,10.9098 -0.3961,3.9875 -0.7269,7.7563 -0.7351,8.375 l -0.015,1.125 h -21.25 -21.25 l -0.013,-3.375 z"
       style="fill:#00007f;stroke-width:0.5"
       id="path9159" />
    <path
       d="m 1154.1708,627.2957 c -20.1616,-3.8581 -35.2948,-19.4203 -38.1989,-39.2815 -0.7883,-5.3909 -0.3393,-13.574 1.0259,-18.7011 4.4494,-16.7089 17.5193,-29.3257 34.8835,-33.674 5.2617,-1.3176 16.1471,-1.1694 21.6187,0.2944 9.0495,2.421 16.1917,6.7105 22.7809,13.6822 16.655,17.6216 16.655,45.647 0,63.2686 -9.1181,9.6474 -19.5252,14.4073 -32.5309,14.8788 -3.8894,0.141 -7.2591,-0.023 -9.5792,-0.4674 z m 16.552,-19.5096 c 12.0036,-5.8762 13.742,-21.7824 3.0407,-27.8219 l -2.7363,-1.5443 2.1114,-1.5884 c 1.2674,-0.9534 2.6611,-2.6721 3.4864,-4.2996 2.721,-5.3653 1.4018,-11.1674 -3.5517,-15.621 -3.1692,-2.8494 -6.1296,-3.9109 -10.907,-3.9109 -5.9522,0 -10.58,2.2642 -13.6002,6.6541 -1.5165,2.2041 -3.2512,7.142 -2.778,7.9076 0.149,0.241 2.3894,0.4383 4.9785,0.4383 h 4.7077 l 0.7872,-1.5221 c 2.2173,-4.2879 9.0198,-4.6273 10.715,-0.5345 1.4783,3.5689 -1.1723,7.1514 -5.993,8.0998 L 1158,574.6301 v 4.3706 4.3705 l 2.5493,0.3382 c 7.2138,0.9569 11.1258,5.3968 9.5092,10.7925 -1.4581,4.8669 -8.3834,7.1338 -12.5468,4.1069 -1.2321,-0.8958 -3.1131,-4.0305 -3.6496,-6.0824 -0.2473,-0.9455 -0.6477,-1.0264 -5.081,-1.0264 -5.7374,0 -5.867,0.1398 -4.6095,4.972 1.5091,5.7992 5.0489,9.81 10.6406,12.0563 1.9817,0.7961 3.42,0.9544 7.6878,0.8462 4.63,-0.1174 5.6011,-0.305 8.2228,-1.5884 z"
       style="fill:#afa363;stroke-width:0.5"
       id="path9511" />
    <path
       d="m 1154.1708,814.7957 c -20.1615,-3.8581 -35.2948,-19.4203 -38.1989,-39.2815 -0.7882,-5.3909 -0.3393,-13.574 1.026,-18.7011 4.4493,-16.7089 17.5192,-29.3257 34.8834,-33.674 5.2618,-1.3176 16.1471,-1.1694 21.6187,0.2944 9.0495,2.421 16.1917,6.7105 22.7809,13.6822 16.655,17.6216 16.655,45.647 0,63.2686 -9.1181,9.6474 -19.5252,14.4073 -32.5309,14.8788 -3.8894,0.141 -7.2591,-0.023 -9.5792,-0.4674 z M 1176.5,791 v -5.5 h 2.5181 2.5181 l -0.1431,-4.875 -0.1431,-4.875 -2.375,-0.1524 -2.375,-0.1524 V 758.2226 741 h -5.1487 -5.1487 L 1154.6013,758.2175 1143,775.4349 v 5.0326 5.0325 h 11.75 11.75 v 5.5 5.5 h 5 5 z m -16.4106,-23.625 c 3.0435,-4.4687 5.7309,-8.3387 5.9721,-8.6 0.2528,-0.2738 0.4385,3.168 0.4385,8.125 v 8.6 h -5.9721 -5.9721 z"
       style="fill:#afa363;stroke-width:0.5"
       id="path9741" />
    <path
       d="m 1154.0882,991.465 c -8.7251,-1.717 -15.2951,-9.1259 -13.6175,-15.3563 0.7741,-2.8744 2.7046,-4.6087 5.1304,-4.6087 1.0806,0 2.3975,0.2317 2.9266,0.5148 2.09,1.1186 3.2011,5.6893 1.9508,8.0254 -0.2868,0.5359 -1.4298,1.5478 -2.54,2.2487 -1.8779,1.1855 -1.9699,1.3476 -1.3194,2.3272 0.3845,0.5791 1.8956,1.7289 3.3579,2.555 2.1544,1.2172 3.4052,1.5453 6.5931,1.7299 5.4168,0.3136 8.0876,-0.5099 10.9478,-3.3755 1.597,-1.5999 2.5239,-3.0919 3.1223,-5.0255 2.6767,-8.6499 0.8221,-20.7252 -3.7048,-24.1213 -4.0096,-3.0081 -5.8023,-3.5638 -12.4354,-3.8546 l -6.25,-0.2741 V 951 949.75 h 5.25 c 4.8849,0 5.4362,-0.1031 7.9278,-1.4832 5.7239,-3.1704 7.2957,-6.9306 6.9871,-16.7152 -0.2344,-7.4306 -1.2317,-10.234 -4.3254,-12.1577 -3.9516,-2.4572 -12.6817,-1.0074 -14.9708,2.4863 -0.7952,1.2136 -0.7815,1.2991 0.3311,2.0679 2.8179,1.9472 3.5502,2.9767 3.5502,4.9907 0,4.2573 -5.337,6.7697 -8.2316,3.8751 -1.5271,-1.5271 -2.282,-4.2866 -1.7808,-6.509 2.0704,-9.1797 16.4134,-13.6514 27.4241,-8.55 10.3645,4.8019 13.3177,16.9898 6.0448,24.9475 -2.6551,2.9051 -8.7386,6.43 -12.2267,7.0844 -0.9514,0.1785 -1.7298,0.4777 -1.7298,0.6649 0,0.1871 1.9376,0.7061 4.3059,1.1532 8.0174,1.5136 12.5284,4.6622 15.583,10.8765 1.2064,2.4544 1.3609,3.3373 1.361,7.7791 10e-5,4.6481 -0.1181,5.2506 -1.6338,8.3293 -4.5725,9.2882 -17.0739,15.0309 -28.0279,12.8752 z"
       style="fill:#00007f;stroke-width:0.5"
       id="path9857" />
    <path
       d="m 990.5,1095.8129 c -16.8044,-3.8874 -29.5539,-15.0697 -34.8351,-30.5533 -3.4257,-10.0434 -3.4257,-20.4758 0,-30.5192 5.4344,-15.9328 19.0892,-27.5406 36.2059,-30.7785 4.6545,-0.8804 15.9745,-0.3317 20.3792,0.9879 4.1602,1.2463 10.8502,4.3831 14.0642,6.5944 6.352,4.3703 12.5909,11.863 15.973,19.1833 5.6516,12.2321 5.3895,27.8563 -0.6713,40.0225 -3.2126,6.4488 -9.4955,13.711 -15.3424,17.7338 -3.2524,2.2378 -10.8791,5.7366 -14.7735,6.7775 -4.2139,1.1263 -17.0573,1.4637 -21,0.5516 z m 15.2197,-19.1395 c 12.8359,-3.9271 16.8922,-22.0297 6.9829,-31.1637 -3.3783,-3.114 -6.1854,-4.213 -10.8253,-4.2385 -2.13,-0.011 -3.8737,-0.176 -3.875,-0.3651 -0.01,-0.4028 1.4241,-6.752 1.8047,-8.0311 0.2351,-0.79 1.1088,-0.875 8.9948,-0.875 h 8.7344 l -0.1431,-4.875 -0.1431,-4.875 -12.3817,-0.1337 -12.3817,-0.1338 -0.477,1.1338 c -0.5645,1.3417 -6.5745,28.9855 -6.3504,29.2095 0.085,0.085 1.9334,0.5596 4.1084,1.0554 l 3.9547,0.9016 2.4391,-1.6414 c 2.7049,-1.8203 4.9918,-2.105 7.3039,-0.9093 2.2446,1.1607 3.9398,3.5433 4.3187,6.0701 0.6831,4.5555 -1.6159,8.5081 -5.6522,9.7174 -3.1662,0.9486 -5.5212,0.2673 -7.9984,-2.314 L 992.0168,1063 h -5.2584 c -6.0488,0 -6.0685,0.021 -4.0634,4.25 1.7102,3.6075 4.2973,6.3401 7.7392,8.1746 4.7147,2.5129 9.7966,2.9281 15.2855,1.2488 z"
       style="fill:#afa363;stroke-width:0.5"
       id="path10087" />
    <path
       d="m 831.75,1190.1806 c -7.3852,-1.1695 -15.3679,-4.1655 -20.5866,-7.7265 -3.2119,-2.1916 -8.275,-7.0496 -10.932,-10.4892 -4.9277,-6.379 -8.2457,-14.7017 -9.2375,-23.1714 -1.3477,-11.5074 2.1427,-24.0741 9.2375,-33.2584 8.6223,-11.1617 20.7497,-17.5194 35.0186,-18.3579 22.4685,-1.3205 43.20152,14.7537 47.80632,37.064 5.07,24.5645 -9.9089,48.4051 -34.43962,54.8142 -3.799,0.9926 -13.5824,1.6452 -16.8667,1.1252 z m 11.9298,-19.1972 c 3.8256,-1.4314 6.9542,-4.3668 8.9269,-8.3758 1.4768,-3.0013 1.6411,-3.7714 1.6218,-7.5987 -0.023,-4.5828 -0.9775,-7.5243 -3.525,-10.8643 -1.8694,-2.4509 -6.0168,-5.0342 -9.1759,-5.7154 -1.5277,-0.3294 -2.8689,-0.6708 -2.9805,-0.7586 -0.1115,-0.088 1.7447,-3.9595 4.125,-8.6038 2.3804,-4.6442 4.3279,-8.6983 4.3279,-9.0091 0,-0.5821 -8.3144,-4.9409 -8.6502,-4.5348 -0.8776,1.0615 -16.4151,32.3455 -17.092,34.4138 -1.1888,3.6329 -0.8648,9.4551 0.6949,12.488 2.1802,4.2396 6.3251,7.8188 10.5473,9.1078 2.5723,0.7852 8.3751,0.5002 11.1798,-0.5491 z m -9.0216,-9.4488 c -6.1667,-2.8182 -4.7437,-12.6835 1.9288,-13.3721 8.6665,-0.8944 10.2361,12.3513 1.663,14.0337 -0.9624,0.1889 -2.2496,-0.048 -3.5918,-0.6616 z"
       style="fill:#afa363;stroke-width:0.5"
       id="path10203" />
    <path
       d="M 667.3333,1274.6666 C 667.15,1274.4834 667,1273.929 667,1273.4347 c 0,-0.7934 0.5698,-0.9152 4.875,-1.0416 l 4.875,-0.1431 0.1366,-8.875 0.1365,-8.875 H 663.5116 650 v -1.2937 c 0,-1.2985 0.6799,-2.648 7.1574,-14.2063 7.9008,-14.098 17.1842,-28.6103 22.9489,-35.875 2.4385,-3.0729 2.5208,-3.125 4.9368,-3.125 H 687.5 v 26 26 h 5 5 v -4.25 c 0,-4.2 0.014,-4.25 1.25,-4.25 H 700 v 10 10 h -1.25 c -1.2407,0 -1.25,-0.034 -1.25,-4.5 v -4.5 h -5.0115 -5.0115 l 0.1365,8.875 0.1365,8.875 4.125,0.1452 c 4.0092,0.1411 4.125,0.1798 4.125,1.375 V 1275 h -14.1666 c -7.7917,0 -14.3167,-0.15 -14.5001,-0.3334 z M 677,1232.25 c 0,-11.7499 -0.1871,-19.75 -0.462,-19.75 -1.1049,0 -23.038,37.0549 -23.038,38.9217 0,0.4214 3.1888,0.5783 11.75,0.5783 H 677 Z"
       style="fill:#00007f;stroke-width:0.5"
       id="path10357" />
    <path
       d="m 504.4544,1189.7573 c -22.5326,-4.2835 -38.4413,-23.3232 -38.4413,-46.0073 0,-34.0766 35.4899,-56.6918 66.3236,-42.2631 5.1335,2.4022 8.0611,4.3951 12.0969,8.2345 8.3963,7.9877 13.2423,17.6265 14.5726,28.9851 1.3476,11.5075 -2.1428,24.0741 -9.2375,33.2584 -8.8418,11.4458 -21.327,17.8413 -35.7687,18.3224 -3.7061,0.1235 -7.0992,-0.065 -9.5456,-0.53 z m 14.0187,-43.6788 C 529.6509,1123.149 530.5,1121.2161 530.5,1118.7035 V 1116 H 512.75 495 v 5 5 h 11 c 6.05,0 11,0.093 11,0.2062 0,0.1133 -4.3875,9.2112 -9.75,20.2175 -5.3625,11.0063 -9.75,20.2541 -9.75,20.5507 0,0.6597 8.111,4.5105 8.5981,4.0818 0.1914,-0.1684 5.7602,-11.4084 12.375,-24.9777 z m -177.47315,-50.2656 c -18.25333,-4.2225 -31.73632,-17.1665 -36.10555,-34.6622 -1.55057,-6.2089 -1.55057,-16.0924 0,-22.3013 4.01946,-16.0951 15.52405,-28.1486 32.10555,-33.6375 3.9696,-1.314 4.8107,-1.4086 12.75,-1.4343 6.7503,-0.022 9.2205,0.1632 12,0.8993 4.0941,1.0842 11.6743,4.535 15.0236,6.8393 5.7309,3.943 12.0448,11.1875 15.2295,17.4742 2.8567,5.6391 4.9969,14.6378 4.9969,21.0096 0,6.3719 -2.1402,15.3705 -4.9969,21.0096 -3.1847,6.2867 -9.4986,13.5312 -15.2295,17.4742 -3.2525,2.2378 -10.8792,5.7366 -14.7736,6.7775 -4.2139,1.1263 -17.0573,1.4637 -21,0.5516 z m 17.6221,-18.5746 c 3.2375,-1.1332 7.0202,-4.6599 8.7277,-8.137 1.2187,-2.4816 1.4002,-3.4347 1.4002,-7.3513 0,-3.905 -0.1831,-4.8729 -1.3852,-7.3207 -0.7619,-1.5515 -2.3439,-3.7044 -3.5155,-4.7844 l -2.1302,-1.9635 1.6408,-2.2157 c 4.4495,-6.0084 3.8544,-13.8831 -1.4594,-19.3117 -3.1315,-3.1991 -6.2259,-4.3614 -11.6505,-4.376 -3.8051,-0.011 -4.9246,0.1865 -7.25,1.2749 -3.704,1.7339 -5.5246,3.3656 -7.2102,6.4625 -2.7125,4.9838 -2.2763,11.4606 1.0669,15.8405 l 1.6854,2.2079 -2.4858,2.7198 c -3.1484,3.4448 -4.5637,7.0677 -4.5355,11.6102 0.05,8.1045 4.8287,14.2227 12.4653,15.9604 3.5541,0.8087 11.5241,0.4733 14.636,-0.6159 z m -12.6297,-9.8633 c -5.5701,-2.8233 -5.466,-10.3754 0.1799,-13.0546 2.3115,-1.0969 6.1647,-1.0481 8.3355,0.1054 5.4363,2.8889 5.352,10.5978 -0.1431,13.0923 -2.8165,1.2786 -5.6636,1.2299 -8.3723,-0.1431 z m 1.7017,-24.3651 c -1.9702,-0.796 -3.1941,-2.9478 -3.1941,-5.6158 0,-2.0644 0.2405,-2.7115 1.4615,-3.9325 1.2304,-1.2304 1.8619,-1.4616 3.9922,-1.4616 2.0575,0 2.8156,0.2571 4.0558,1.375 4.8228,4.3477 -0.2494,12.0859 -6.3154,9.6349 z M 182.24995,815.1806 c -7.89529,-1.2503 -15.77796,-4.3288 -21.45273,-8.37818 -1.71006,-1.2203 -4.89528,-4.1084 -7.07824,-6.4181 -16.6879,-17.6564 -16.6879,-45.6122 0,-63.2686 6.69789,-7.0866 14.05796,-11.457 23.09247,-13.7122 5.69255,-1.4211 16.13656,-1.5486 21.30715,-0.2602 17.44348,4.3465 30.35586,16.8736 34.98204,33.9384 1.6292,6.0097 1.6292,17.3269 0,23.3366 -4.54513,16.7658 -17.14576,29.23778 -33.98403,33.63708 -3.79902,0.9926 -13.58236,1.6452 -16.86666,1.1252 z m 13.2421,-35.00338 c 8.8879,-17.4863 9.89061,-20.1721 9.29134,-24.8873 -0.67916,-5.3438 -4.72122,-10.9419 -9.64849,-13.3629 -1.8057,-0.8872 -3.44111,-1.2146 -6.7335,-1.3482 -3.85587,-0.1563 -4.67728,-0.026 -7.25,1.1472 -3.80973,1.7378 -7.24121,5.1642 -8.92133,8.908 -1.21746,2.7128 -1.32355,3.4231 -1.12853,7.5552 0.17283,3.6617 0.47146,5.0537 1.51474,7.0608 2.43623,4.687 7.44555,8.4349 12.13207,9.0773 1.23838,0.1698 2.2516,0.3632 2.2516,0.4299 0,0.067 -2.025,4.0522 -4.5,8.8567 -2.475,4.8044 -4.5,8.8848 -4.5,9.0674 0,0.4073 8.08526,4.2644 8.66622,4.1344 0.22892,-0.051 4.20057,-7.5386 8.82588,-16.6385 z m -10.28288,-16.1616 c -1.67631,-0.6781 -3.58891,-3.3237 -3.95061,-5.4647 -0.46519,-2.7534 1.0804,-6.1834 3.30459,-7.3336 6.11551,-3.1624 11.9854,2.9118 9.21689,9.5378 -1.25458,3.0026 -5.35366,4.5619 -8.57087,3.2605 z m -2.95922,-136.335 c -7.89529,-1.2503 -15.77796,-4.3288 -21.45273,-8.3782 -1.71006,-1.2203 -4.89528,-4.1084 -7.07824,-6.4181 -16.6879,-17.6564 -16.6879,-45.6122 0,-63.2686 6.69789,-7.0866 14.05796,-11.457 23.09247,-13.7122 5.69255,-1.4211 16.13656,-1.5486 21.30715,-0.2602 17.44348,4.3465 30.35586,16.8736 34.98204,33.9384 1.6292,6.0097 1.6292,17.3269 0,23.3366 -4.54513,16.7658 -17.14576,29.2378 -33.98403,33.6371 -3.79902,0.9926 -13.58236,1.6452 -16.86666,1.1252 z m 21.55967,-19.2459 c 5.37339,-2.0104 9.26178,-7.5537 10.89976,-15.5386 1.06922,-5.2123 1.07019,-18.0721 0.002,-23.2922 -1.61891,-7.9094 -5.65289,-13.3804 -11.48647,-15.5781 -4.00095,-1.5072 -10.77807,-1.3184 -14.32213,0.3991 -6.94977,3.368 -10.54415,10.9879 -11.20885,23.7621 -0.86985,16.7172 3.46322,27.2741 12.47249,30.3875 3.73821,1.2918 9.98833,1.2278 13.64345,-0.1397 z m -9.55967,-9.1405 c -1.92895,-0.8573 -3.50342,-2.5819 -4.47069,-4.8969 -1.17119,-2.803 -1.91318,-10.9778 -1.51106,-16.6473 0.75992,-10.7138 3.14211,-14.75 8.70549,-14.75 1.61509,0 2.41934,0.3577 3.98555,1.7727 3.00946,2.7189 3.63513,5.0785 3.90505,14.7273 0.33743,12.0621 -1.35279,18.0017 -5.63142,19.7894 -2.07642,0.8676 -3.03962,0.8685 -4.98292,0.01 z m -24,-18.0442 v -27 l -5.125,-0.1425 -5.125,-0.1425 v 27.285 27.285 l 5.125,-0.1425 5.125,-0.1425 z m 170.75,-235.4371 c -18.25333,-4.2226 -31.73632,-17.1666 -36.10555,-34.66223 -1.55057,-6.20892 -1.55057,-16.09242 0,-22.30135 4.01946,-16.09509 15.52405,-28.14859 32.10555,-33.63739 3.9696,-1.31402 4.8107,-1.40865 12.75,-1.43438 6.7503,-0.0219 9.2205,0.16323 12,0.8993 4.0941,1.08419 11.6743,4.53501 15.0236,6.83935 5.7309,3.94301 12.0448,11.1875 15.2295,17.47421 2.8567,5.63911 4.9969,14.63775 4.9969,21.00959 0,6.37184 -2.1402,15.37048 -4.9969,21.00959 -3.1847,6.28671 -9.4986,13.53121 -15.2295,17.47421 -3.2525,2.2377 -10.8792,5.7366 -14.7736,6.7775 -4.2139,1.1263 -17.0573,1.4636 -21,0.5516 z m 4,-45.8129 v -27 h -5.25 -5.25 v 27 27 h 5.25 5.25 z m 21,0 v -27 h -5.25 -5.25 v 27 27 h 5.25 5.25 z M 504.4544,252.25731 c -22.5326,-4.28347 -38.4413,-23.32326 -38.4413,-46.00729 0,-34.07666 35.4899,-56.69179 66.3236,-42.26316 5.1335,2.40222 8.0611,4.39511 12.0969,8.23449 8.3963,7.98776 13.2423,17.62656 14.5726,28.98516 1.3476,11.50746 -2.1428,24.0741 -9.2375,33.25842 -8.8418,11.4458 -21.327,17.84132 -35.7687,18.3224 -3.7061,0.12347 -7.0992,-0.0649 -9.5456,-0.53002 z M 495.5,206.98253 v -27.0175 l -5.125,0.1425 -5.125,0.14249 -0.13,26.25 c -0.071,14.4375 -0.022,26.53125 0.1093,26.875 0.1695,0.44256 1.7034,0.625 5.255,0.625 H 495.5 Z m 44.3931,22.14249 -0.1431,-4.875 -9.0734,-0.25 -9.0734,-0.25 5.2841,-5.75 c 8.6301,-9.39111 12.0137,-15.42598 12.4748,-22.25 0.3125,-4.6238 -1.0202,-8.24821 -4.3874,-11.93243 -3.6151,-3.95558 -6.4238,-5.07113 -12.7247,-5.05389 -5.5206,0.0151 -8.0761,0.82653 -11.7386,3.72728 -3.4769,2.7538 -6.5114,8.97508 -6.5114,13.34979 v 1.65925 h 4.9502 4.9501 l 0.5983,-2.4942 c 1.026,-4.27688 3.5961,-6.5058 7.5014,-6.5058 4.1935,0 6.9947,2.8251 6.9981,7.05782 0.01,4.46736 -2.5937,8.43983 -11.9925,18.34189 -4.6203,4.86766 -9.7741,10.19324 -11.4531,11.83464 -2.9747,2.90822 -3.0525,3.05171 -3.0525,5.625 v 2.64065 h 18.7681 18.7681 z"
       style="fill:#afa363;stroke-width:0.5"
       id="path10595"
       sodipodi:nodetypes="csssssscsscccccsssssssssssssssssssssssscssccsscscssssssssssscscscsssssscsssccssssssscsssssscscscssssccscsssscccssssssccccccccccccssssscsssssccccccccccccccccccccsssccscccccccsccccccsssssscccsscssscccc" />
    <path
       d="M 665.5,720.7528 C 648.1996,716.8871 634.7474,704.2297 629.8935,687.25 628.91,683.8097 628.75,682.0957 628.75,675 c 0,-7.0956 0.16,-8.8097 1.1435,-12.25 4.5334,-15.8583 16.9982,-28.3231 32.8565,-32.8565 3.4403,-0.9835 5.1544,-1.1435 12.25,-1.1435 7.0957,0 8.8097,0.16 12.25,1.1435 15.8583,4.5334 28.3232,16.9982 32.8566,32.8565 0.9834,3.4403 1.1434,5.1544 1.1434,12.25 0,7.0957 -0.16,8.8097 -1.1434,12.25 -4.5031,15.7521 -16.9824,28.3 -32.6066,32.7859 -4.924,1.4136 -17.1053,1.8107 -22,0.7169 z m 24.1004,-17.815 c 5.6975,-1.2089 10.479,-4.906 12.8525,-9.9378 1.0788,-2.2871 1.2971,-3.4655 1.2971,-7 0,-3.7789 -0.1649,-4.5476 -1.4872,-6.9351 -1.5481,-2.7952 -3.363,-4.4709 -6.4891,-5.9915 l -1.8415,-0.8957 2.0242,-1.3395 c 1.1649,-0.771 2.663,-2.4534 3.5291,-3.9639 3.8155,-6.6529 0.394,-15.551 -7.2862,-18.9482 -6.2512,-2.7653 -14.6322,-1.0744 -19.2927,3.8922 -1.6911,1.8021 -3.8953,6.4949 -3.9017,8.3067 v 1.375 l 4.875,-0.01 c 4.8581,0 4.8778,-0.01 5.7021,-1.4571 1.2108,-2.1284 3.1577,-3.2064 5.7906,-3.2064 1.9411,0 2.5047,0.2417 3.7105,1.5912 3.174,3.5523 0.7493,8.1917 -4.8674,9.3133 l -2.9608,0.5912 v 4.4583 4.4584 l 2.9206,0.3648 c 5.705,0.7127 9.3311,3.9542 9.3276,8.3384 -0.01,4.545 -3.1853,7.5473 -7.9982,7.5473 -4.2574,0 -7.3684,-2.4823 -8.273,-6.6011 l -0.3065,-1.3952 h -5.2409 -5.2409 l 0.3461,2.375 c 1.6292,11.1796 11.2334,17.5203 22.8156,15.0628 z M 659.25,675 V 648.25 L 654.125,648.1075 649,647.965 V 675 702.035 l 5.125,-0.1425 5.125,-0.1425 z"
       style="fill:#afa363;stroke-width:0.5"
       id="path10863" />
    <path
       d="m 177.69175,994.7912 c -3.64456,-0.8844 -7.02569,-3.0305 -8.85963,-5.6232 -2.08942,-2.954 -2.74811,-4.8626 -2.79409,-8.0959 -0.0341,-2.3995 0.13701,-2.8501 1.66196,-4.375 2.18189,-2.1819 4.94427,-2.3555 7.20547,-0.4528 3.01495,2.5369 2.45113,6.7714 -1.23972,9.3107 -2.09056,1.4384 -2.18408,1.5991 -1.52044,2.6124 2.51199,3.8354 9.54241,5.3977 15.88894,3.5308 3.5392,-1.041 6.94971,-4.4439 8.2786,-8.26 1.29969,-3.7322 1.33945,-15.3918 0.0665,-19.5031 -1.30077,-4.2011 -3.6639,-7.3429 -6.87936,-9.1459 -2.56195,-1.4366 -3.09191,-1.5421 -7.75,-1.5421 -4.17357,0 -5.47419,0.2008 -7.86887,1.2145 -1.57787,0.6679 -3.02706,1.0563 -3.22041,0.8629 -0.45468,-0.4547 0.73571,-27.9651 1.32074,-30.5227 0.89689,-3.9211 2.16406,-4.2322 17.41627,-4.2749 10.62022,-0.03 10.6509,-0.033 11.875,-1.2571 0.67499,-0.6749 1.22727,-1.4624 1.22727,-1.75 0,-0.2875 0.48231,-0.5227 1.0718,-0.5227 1.02792,0 1.05804,0.148 0.73572,3.6161 -0.37597,4.0452 -1.44459,6.6223 -3.31021,7.9829 -1.92507,1.404 -6.34243,1.8949 -17.07742,1.8981 h -9.83012 l -0.2836,4.125 c -0.15597,2.2687 -0.42337,7.1389 -0.59421,10.8224 -0.28941,6.2403 -0.25096,6.6745 0.56321,6.3621 2.649,-1.0165 10.23622,-1.8796 13.7205,-1.5609 17.39507,1.5913 27.17634,17.0087 20.01706,31.5513 -1.86602,3.7904 -6.78477,8.5658 -11.03062,10.7091 -5.57915,2.8164 -12.92181,3.7093 -18.79035,2.2851 z"
       style="fill:#00007f;stroke-width:0.5"
       id="path11245" />
    <path
       d="m 183.37296,432.489 c -5.96571,-1.5072 -11.61166,-6.5092 -14.87622,-13.1795 -2.80465,-5.7305 -3.5623,-9.0417 -3.84632,-16.8095 -0.20153,-5.5114 -0.0627,-7.6401 0.75658,-11.601 2.84583,-13.7586 11.69246,-25.2163 24.38246,-31.5791 3.59495,-1.8025 10.20022,-3.9137 14.11805,-4.5124 l 2.15751,-0.3297 -0.15751,1.5972 c -0.15276,1.5492 -0.26199,1.6183 -3.62715,2.2956 -12.02407,2.4198 -20.0781,9.8538 -23.43339,21.6294 -1.23156,4.3222 -1.96409,8.5 -1.4904,8.5 0.14378,0 1.06835,-0.7085 2.05461,-1.5744 6.08404,-5.3419 14.93939,-5.4238 22.05028,-0.2039 3.15395,2.3152 6.65292,6.9461 8.05194,10.6568 3.80087,10.0812 1.34281,21.1534 -6.45921,29.0952 -4.05931,4.132 -8.27366,6.0808 -13.64823,6.3113 -2.28578,0.098 -5.00062,-0.035 -6.033,-0.296 z m 8.7681,-2.6794 c 2.26347,-0.9712 4.68013,-3.6771 5.59177,-6.2609 1.32942,-3.768 1.92662,-11.2256 1.60498,-20.0424 -0.16566,-4.541 -0.54549,-9.2688 -0.84406,-10.5063 -1.22953,-5.096 -4.47923,-7.725 -9.49375,-7.6803 -3.55421,0.032 -6.42899,1.4961 -9.77716,4.9808 l -2.56944,2.6741 -0.32895,6.6377 c -0.50022,10.0937 0.53063,21.1796 2.38131,25.6089 1.66128,3.976 9.01197,6.4864 13.4353,4.5884 z"
       style="fill:#00007f;stroke-width:0.5"
       id="path11446" />
    <path
       d="m 656.5,148.75 v -1.25 h 6.5 6.5 V 113.75 80 H 663 c -6.485,0 -6.5,-0.003 -6.5,-1.17223 0,-1.15717 0.088,-1.17635 6.875,-1.49429 3.7813,-0.17714 8.9,-0.65822 11.375,-1.06905 2.475,-0.41083 4.6673,-0.7509 4.8717,-0.7557 0.2044,-0.005 0.4294,16.135019 0.5,35.86627 l 0.1283,35.875 6.625,0.13951 6.625,0.13952 V 148.76451 150 H 675 656.5 Z"
       style="fill:#00007f;stroke-width:0.5"
       id="path11676" />
    <path
       d="m 665.25,533.2014 c -18.2301,-4.0401 -32.3218,-18.3801 -36.0217,-36.6566 -1.1522,-5.6913 -0.793,-16.1956 0.7336,-21.458 4.6618,-16.0685 16.6997,-28.0005 33.0381,-32.7473 3.1797,-0.9238 5.0048,-1.0895 12,-1.0895 7.0804,0 8.8021,0.16 12.1443,1.1288 16.3206,4.7305 28.2464,16.6564 32.977,32.977 0.9687,3.3421 1.1287,5.0639 1.1287,12.1442 0,7.0803 -0.16,8.8021 -1.1287,12.1443 -4.699,16.2116 -16.6258,28.2083 -32.7081,32.8996 -4.9404,1.4412 -17.0111,1.7993 -22.1632,0.6575 z m -0.5761,-23.6458 10.3239,-7.5334 9.1261,6.6357 c 11.9124,8.6617 12.3926,8.9922 12.6659,8.719 0.1278,-0.1278 -1.6146,-5.8854 -3.8719,-12.7948 -2.2573,-6.9094 -4.006,-12.6476 -3.8861,-12.7516 0.1201,-0.1041 4.8968,-3.5824 10.6151,-7.7297 5.7183,-4.1473 10.3875,-7.7228 10.3759,-7.9457 -0.012,-0.2228 -6.004,-0.5176 -13.3164,-0.6551 l -13.2952,-0.25 -3.8562,-11.75 c -2.1209,-6.4625 -4.0134,-12.0875 -4.2056,-12.5 -0.4784,-1.027 -0.3961,-1.2369 -4.9043,12.5 l -3.8562,11.75 -13.2953,0.25 c -7.3124,0.1375 -13.3511,0.3986 -13.4194,0.5802 -0.068,0.1816 4.6008,3.7571 10.3758,7.9456 5.775,4.1885 10.5987,7.7011 10.7193,7.8058 0.1627,0.1412 -5.5652,18.3679 -7.8974,25.1302 -0.4298,1.2463 0.9615,0.3582 11.602,-7.4062 z"
       style="fill:#00007f;stroke-width:0.5"
       id="path11906" />
    <path
       d="m 629,896.507 v -3.493 l 13.1851,-13.132 c 13.006,-12.9536 13.2167,-13.1965 15.511,-17.882 3.6365,-7.4263 4.6246,-14.2059 3.0466,-20.8998 -0.9642,-4.0894 -1.893,-5.8749 -4.4171,-8.4915 -6.0152,-6.2352 -17.3419,-4.0173 -21.1492,4.1413 -2.0112,4.3099 -1.3174,7.4389 1.3251,5.9764 1.5448,-0.8549 4.9831,-0.9037 6.0215,-0.085 1.4299,1.1269 2.477,3.0708 2.4751,4.5954 0,1.9846 -1.6679,4.6629 -3.2809,5.2762 -5.4823,2.0844 -10.3642,-2.6327 -10.3642,-10.0142 0,-10.7799 11.0684,-18.8314 23.4794,-17.0797 12.5809,1.7757 19.6473,10.1978 17.6997,21.0957 -1.4201,7.9469 -6.0074,13.8014 -24.4404,31.1918 -6.0956,5.7508 -11.4333,10.9908 -11.8616,11.6445 l -0.7787,1.1884 16.4999,-0.1445 c 11.1404,-0.098 16.6782,-0.3229 17.0488,-0.6939 0.3018,-0.3022 0.8277,-2.7772 1.1685,-5.5 0.5778,-4.6148 0.7001,-4.9621 1.8032,-5.1205 l 1.1834,-0.17 -0.321,4.17 c -0.1765,2.2935 -0.5827,7.0387 -0.9027,10.5449 l -0.5817,6.375 H 650.1749 629 Z m 55.5,2.258 v -1.2351 l 6.375,-0.1399 6.375,-0.14 v -33.5 -33.5 l -6.375,-0.1399 c -6.2912,-0.1381 -6.375,-0.1552 -6.375,-1.2979 0,-1.1365 0.1228,-1.1638 6.625,-1.473 3.6438,-0.1732 8.65,-0.654 11.125,-1.0684 2.475,-0.4143 4.7813,-0.7572 5.125,-0.762 0.4943,-0.01 0.625,7.5199 0.625,35.9912 v 36 h 6.5 6.5 v 1.25 1.25 H 702.75 684.5 Z"
       style="fill:#00007f;stroke-width:0.5"
       id="path12159" />
    <path
       d="m 508.5386,629 c 0.5288,-1.925 1.3941,-5.075 1.9229,-7 0.5288,-1.925 0.793,-3.5 0.5872,-3.5 -0.2059,0 -0.9198,0.5915 -1.5865,1.3144 -1.612,1.748 -3.9384,2.6856 -6.6636,2.6856 -4.0896,0 -7.0914,-1.9502 -8.8507,-5.75 -1.1553,-2.4953 -1.175,-4.9371 -0.06,-7.4156 0.7687,-1.7084 17.9483,-22.7214 18.6422,-22.8019 0.4837,-0.056 17.7863,20.6625 18.649,22.3309 1.6646,3.2188 0.6549,8.8701 -2.0011,11.2013 -4.0741,3.5759 -11.0951,3.1171 -14.1077,-0.922 -1.4323,-1.9203 -1.3366,-1.0145 0.6795,6.4263 0.9625,3.5524 1.75,6.5651 1.75,6.695 0,0.1298 -2.2327,0.236 -4.9615,0.236 h -4.9615 z M 499.5,574.5 v -2 h 2.25 2.25 V 551.25 530 h -2.25 c -2.246,0 -2.25,-0.01 -2.25,-1.7829 v -1.7829 l 8.4652,0.1579 c 9.7632,0.1821 10.376,0.4111 12.5348,4.6839 1.156,2.288 1.25,3.0004 1.25,9.474 0,6.3233 -0.1099,7.2057 -1.1368,9.1281 -0.6251,1.1705 -1.9161,2.633 -2.8687,3.25 -0.9527,0.6171 -1.7349,1.3203 -1.7383,1.5627 -0.01,0.2424 1.3953,4.3383 3.1083,9.1018 l 3.1145,8.6611 2.0105,0.1482 c 1.9362,0.1426 2.0105,0.2128 2.0105,1.8981 v 1.75 h -5.5 -5.5 l -0.1552,-1.875 c -0.1422,-1.7188 -0.049,-1.875 1.125,-1.875 0.8995,0 1.2695,-0.2602 1.2445,-0.875 -0.02,-0.4812 -1.3149,-4.475 -2.8781,-8.875 l -2.8424,-8 h -1.7469 -1.7469 l -0.1365,8.875 -0.1365,8.875 h 2.2615 2.2615 v 2 2 H 506 499.5 Z M 515,550.3538 c 2.0006,-1.0108 2.6006,-3.7223 2.4016,-10.8538 -0.1232,-4.4176 -0.3909,-6.5842 -0.913,-7.3901 -0.899,-1.3875 -3.5447,-2.2461 -6.2386,-2.0245 l -2,0.1646 -0.1362,9.7353 c -0.075,5.3543 -0.026,10.0231 0.1094,10.375 0.3227,0.841 5.1084,0.8363 6.7768,-0.01 z"
       style="fill:#00007f;stroke-width:0.5"
       id="path12427" />
    <path
       d="m 503.7631,804.7092 c -4.8809,-8.4416 -9.2943,-16.2733 -9.8077,-17.4038 -3.2066,-7.061 2.6366,-14.7299 10.3428,-13.5743 3.6416,0.5461 6.5558,3.2941 7.9737,7.5189 0.2823,0.8413 0.448,0.6849 1.0438,-0.9851 1.317,-3.6914 5.3991,-6.7293 9.0754,-6.7539 3.2481,-0.022 7.2859,2.4936 8.871,5.5261 0.6773,1.2959 0.994,3.6 0.8278,6.0224 -0.049,0.7202 -3.9545,8.0327 -8.6779,16.25 -4.7234,8.2173 -9.08,15.7972 -9.6814,16.8443 l -1.0933,1.9038 z M 499.5,762 v -2 h 2.2555 2.2554 l -0.1304,-21.125 -0.1305,-21.125 -2.125,-0.1537 c -2.0587,-0.149 -2.125,-0.2075 -2.125,-1.875 V 714 h 8.0249 c 8.8988,0 10.0045,0.2843 12.1532,3.1245 0.6763,0.894 1.5091,2.638 1.8506,3.8755 0.8503,3.0814 0.8498,11.2037 0,14.192 -0.6745,2.3694 -3.4315,5.8958 -4.998,6.393 -0.57,0.1809 -0.049,2.0986 2.5,9.1968 l 3.2203,8.9682 2.125,0.1538 c 2.1146,0.153 2.1249,0.1633 2.1249,2.125 V 764 h -5.75 -5.75 v -2 c 0,-1.8 0.125,-2 1.25,-2 0.6875,0 1.25,-0.1685 1.25,-0.3746 0,-1.3436 -5.7417,-17.2495 -6.3047,-17.4656 -0.3836,-0.1472 -1.2648,-0.1253 -1.9581,0.049 l -1.2607,0.3164 0.1368,8.6126 0.1367,8.6125 2.125,0.1537 c 2.1147,0.153 2.125,0.1634 2.125,2.125 v 1.9713 h -6.5 -6.5 v -2 z m 15.4643,-24.2315 c 1.8966,-0.9808 2.1177,-1.6774 2.4111,-7.5984 0.3128,-6.3138 -0.1143,-9.3108 -1.5681,-11.0009 -0.9882,-1.1488 -1.5285,-1.3187 -4.3429,-1.3656 l -3.2144,-0.054 -0.1362,9.7353 c -0.075,5.3544 -0.026,10.0231 0.1094,10.375 0.3411,0.8891 4.9661,0.8261 6.7411,-0.092 z"
       style="fill:#ee4514;stroke-width:0.5"
       id="path12619" />
    <path
       d="m 833.9202,815.1673 c 0.6876,-2.5437 1.571,-5.732 1.9633,-7.0851 0.3922,-1.3529 0.598,-2.5751 0.4573,-2.7157 -0.1406,-0.1407 -0.9836,0.4486 -1.8733,1.3097 -5.1982,5.031 -12.8535,3.5584 -15.5936,-2.9996 -2.0495,-4.9052 0.7441,-10.6575 6.0217,-12.3993 1.7231,-0.5687 3.8921,-0.4689 6.7044,0.3084 1.2256,0.3388 1.2195,0.3125 -0.319,-1.3489 -2.5184,-2.7197 -3.3214,-4.7442 -3.0725,-7.7462 0.4212,-5.0786 4.2495,-8.6615 9.2826,-8.6873 2.8766,-0.014 5.0492,0.9695 6.9707,3.158 3.2819,3.7378 3.2085,9.0949 -0.1737,12.681 -0.9356,0.992 -1.6293,1.8755 -1.5415,1.9633 0.088,0.088 1.0372,-0.083 2.1097,-0.3788 6.0421,-1.6683 11.7437,2.7331 11.7437,9.0655 0,8.3976 -9.8861,12.5806 -15.7869,6.6798 -0.9788,-0.9789 -1.9053,-1.6542 -2.0588,-1.5007 -0.1536,0.1535 0.5364,3.3069 1.5333,7.0074 0.9968,3.7006 1.8124,6.86 1.8124,7.0209 0,0.1609 -2.1217,0.2926 -4.715,0.2926 H 832.67 Z M 824.6,761.8211 c 0,-1.3735 0.1413,-1.4815 2.125,-1.625 l 2.125,-0.1538 0.1304,-21.375 0.1304,-21.375 h -2.2554 c -2.2548,0 -2.2554,-5e-4 -2.2554,-1.7939 v -1.7939 l 7.875,0.1689 c 9.0485,0.1941 10.5332,0.6999 12.5048,4.2602 2.3687,4.2775 2.4262,14.6387 0.1064,19.1859 -0.572,1.121 -1.8153,2.4957 -2.7631,3.0549 -0.9477,0.5592 -1.7186,1.2757 -1.7131,1.5923 0.01,0.3166 1.4443,4.5131 3.1973,9.3256 l 3.1873,8.75 2.0527,0.1538 c 1.9037,0.1426 2.0527,0.2605 2.0527,1.625 v 1.4712 h -5.5 -5.5 v -1.5 c 0,-1.2666 0.1945,-1.5 1.25,-1.5 0.6875,0 1.2586,-0.2812 1.2691,-0.625 0.011,-0.3437 -1.2832,-4.5145 -2.875,-9.2684 l -2.8941,-8.6434 -2,0.1434 -2,0.1434 v 9 9 l 2.125,0.1538 c 1.9837,0.1435 2.125,0.2515 2.125,1.625 v 1.4712 h -6.25 -6.25 z m 15.8693,-24.2935 c 1.5522,-1.0873 2.1251,-3.7118 2.1251,-9.7353 0,-9.0543 -1.0162,-10.6629 -6.57,-10.4001 l -3.1744,0.1501 -0.1351,10.375 -0.1352,10.375 h 3.3989 c 2.2411,0 3.7708,-0.2605 4.4907,-0.7647 z"
       style="fill:#5e7065;stroke-width:0.5"
       id="path12925" />
    <path
       d="m 827.75,621.1838 c -5.225,-6.2129 -9.475,-11.5706 -9.4446,-11.906 0.073,-0.8027 18.7489,-22.8502 19.2016,-22.6681 0.1919,0.077 4.2384,4.7528 8.9924,10.3903 4.754,5.6375 9.0621,10.7153 9.5737,11.284 0.9216,1.0244 0.8396,1.1414 -8.8428,12.625 -5.3752,6.3751 -9.8197,11.5865 -9.8766,11.581 -0.057,-0.01 -4.3787,-5.0933 -9.6037,-11.3062 z M 824.5,574.5 v -2 h 2 2 V 551.25 530 h -2 c -1.9524,0 -2,-0.042 -2,-1.75 v -1.75 h 7.8828 c 9.6554,0 10.6322,0.3571 12.8198,4.6874 1.9105,3.7816 2.4092,11.1191 1.0848,15.9607 -0.9204,3.3646 -1.6842,4.5211 -4.1248,6.2452 l -1.5875,1.1212 1.4901,4.1178 c 0.8195,2.2648 2.29,6.3115 3.268,8.9927 l 1.7779,4.875 h 1.9445 c 1.9352,0 1.9444,0.01 1.9444,2 v 2 h -5.5 -5.5 v -2 c 0,-1.8 0.125,-2 1.25,-2 0.6875,0 1.25,-0.082 1.25,-0.1832 0,-0.1753 -4.2931,-12.7775 -5.5253,-16.2191 -0.5194,-1.4509 -0.7826,-1.6338 -2.1581,-1.5 l -1.5666,0.1523 -0.1366,8.875 -0.1365,8.875 h 2.2615 2.2616 v 2 2 h -6.5 -6.5 z m 16.0061,-24.7839 c 2.1993,-2.1992 2.6312,-13.9264 0.6386,-17.3383 -1.0191,-1.7449 -3.1023,-2.5274 -6.0695,-2.28 l -1.8252,0.1522 -0.1353,10.4339 -0.1353,10.4339 3.2707,-0.2083 c 2.3919,-0.1522 3.5356,-0.473 4.256,-1.1934 z"
       style="fill:#ee4514;stroke-width:0.5"
       id="path13193" />
    <path
       d="m 345.741,725.14611 c 0.5849,-1.5242 3.359,-12.37821 3.359,-13.14231 0,-0.6046 -0.6157,-0.2713 -2.2051,1.1938 -6.1298,5.6501 -15.7949,1.5777 -15.7949,-6.6553 0,-2.9035 1.454,-5.7834 3.835,-7.5961 1.6817,-1.2801 2.2071,-1.4024 5.9615,-1.3869 l 4.1174,0.017 -1.4905,-1.6976 c -1.9209,-2.1877 -2.4234,-3.5721 -2.4234,-6.6758 0,-7.16 7.7657,-11.4871 14.0286,-7.8167 5.2578,3.0812 6.067,10.2181 1.6902,14.9061 l -1.167,1.25 h 4.1363 c 3.7623,0 4.303,0.127 5.9787,1.404 6.8287,5.2037 3.9598,16.0472 -4.4298,16.7429 -3.6959,0.3065 -4.9418,-0.1042 -7.5166,-2.4775 -2.759,-2.5432 -2.7784,-2.3034 -0.5012,6.20561 l 1.7061,6.375 h -4.7661 c -3.6911,0 -4.7103,-0.1457 -4.5182,-0.6462 z m 3.109,-54.93091 c -4.1375,-1.5184 -7.0178,-5.8504 -8.5922,-12.9229 -1.1442,-5.1402 -1.1569,-18.8107 -0.022,-23.8797 1.1699,-5.2259 3.1492,-9.2945 5.6372,-11.5879 3.4181,-3.1506 6.7972,-3.3065 10.3522,-0.4774 l 1.875,1.4921 v -1.2736 c 0,-1.1221 0.2081,-1.2735 1.75,-1.2735 h 1.75 v 8.25 8.25 h -1.75 -1.75 v -4.016 c 0,-6.5185 -2.1713,-9.984 -6.2556,-9.984 -5.8278,0 -8.3176,6.7379 -8.3145,22.5 0,12.6246 1.5272,18.769 5.2153,21.0178 4.1727,2.5442 8.2584,-0.081 10.3381,-6.6428 0.5318,-1.678 0.7712,-1.875 2.2785,-1.875 h 1.6843 l -0.9754,2.8351 c -2.1719,6.3127 -5.1577,9.4273 -9.4873,9.8963 -1.2284,0.1331 -2.9084,-0.01 -3.7334,-0.3085 z"
       style="fill:#5e7065;stroke-width:0.5"
       id="path13576" />
    <path
       d="m 508.1,1006.9997 c 0,-0.1609 0.8156,-3.3203 1.8125,-7.0209 0.9968,-3.7005 1.6868,-6.8539 1.5333,-7.0074 -0.1535,-0.1535 -1.08,0.5218 -2.0589,1.5007 -5.9008,5.9008 -15.7869,1.7178 -15.7869,-6.6798 0,-6.3324 5.7017,-10.7338 11.7437,-9.0655 1.0725,0.2961 2.0219,0.4666 2.1097,0.3788 0.088,-0.088 -0.6059,-0.9713 -1.5414,-1.9633 -3.3822,-3.5861 -3.4556,-8.9432 -0.1737,-12.681 2.8116,-3.2024 7.1127,-4.065 11.1117,-2.2287 2.3789,1.0924 3.445,2.2075 4.481,4.687 1.5766,3.7734 0.7729,7.3777 -2.412,10.8172 -1.5384,1.6614 -1.5446,1.6877 -0.319,1.3489 4.3938,-1.2145 7.28,-0.7554 10.0839,1.6039 5.2897,4.451 4.0591,12.7071 -2.3339,15.6577 -3.6323,1.6764 -7.4484,0.896 -10.6175,-2.1712 -0.8896,-0.861 -1.7326,-1.4503 -1.8733,-1.3096 -0.1407,0.1406 0.065,1.3627 0.4574,2.7157 0.3922,1.3531 1.2757,4.5413 1.9633,7.0851 l 1.2501,4.625 h -4.715 c -2.5932,0 -4.715,-0.1317 -4.715,-0.2926 z m 2.7663,-56.8324 c -0.1113,-0.3437 -1.9074,-10.1875 -3.9914,-21.875 -2.0841,-11.6875 -3.9028,-21.7562 -4.0416,-22.375 -0.2025,-0.9028 -0.596,-1.125 -1.9928,-1.125 -1.6558,0 -1.7405,-0.085 -1.7405,-1.75 v -1.75 h 5.75 5.75 v 1.75 c 0,1.6957 -0.06,1.75 -1.9166,1.75 -1.0542,0 -2.0301,0.1134 -2.1687,0.2521 -0.2431,0.243 5.3457,34.778 5.8573,36.1945 0.1384,0.3831 0.3854,0.5627 0.549,0.3991 0.2395,-0.2395 6.1453,-35.1394 6.1716,-36.4707 0,-0.2062 -1.0051,-0.375 -2.2426,-0.375 -2.2381,0 -2.25,-0.01 -2.25,-1.75 v -1.75 h 6 6 v 1.75 c 0,1.6989 -0.056,1.75 -1.9375,1.75 -1.7166,0 -1.9674,0.1568 -2.2002,1.375 -0.1445,0.7563 -2.0112,11.1063 -4.1482,23 l -3.8855,21.625 h -1.68 c -0.924,0 -1.771,-0.2812 -1.8823,-0.625 z"
       style="fill:#5e7065;stroke-width:0.5"
       id="path13844" />
    <path
       d="m 341.2786,523.2643 c -9.9622,-17.2379 -10.7522,-18.7994 -10.7676,-21.2834 -0.015,-2.4028 1.8406,-5.856 4.1217,-7.6706 1.4903,-1.1855 2.5004,-1.5423 4.8471,-1.712 5.0004,-0.3617 8.5647,1.9907 10.2079,6.7369 l 0.6503,1.8783 0.3614,-1.4817 c 0.634,-2.5992 2.6253,-5.0577 5.0454,-6.2293 7.9889,-3.8674 16.7951,3.9746 13.4157,11.9467 -0.9114,2.1499 -17.8265,31.8106 -18.6557,32.7127 -0.2082,0.2265 -4.36,-6.4774 -9.2262,-14.8976 z M 336.5,480.7788 c 0,-1.6676 0.066,-1.7261 2.125,-1.875 l 2.125,-0.1538 0.1304,-21.125 0.1305,-21.125 H 338.7554 336.5 v -2 -2 h 7.375 c 4.0562,0 8.275,0.2486 9.375,0.5491 6.5791,1.7971 9.321,8.9944 9.3137,24.4481 -0.01,11.7536 -1.5184,18.5135 -4.9655,22.1866 -2.3408,2.494 -3.7966,2.8132 -12.8321,2.8132 H 336.5 Z m 16.483,-2.6546 c 3.7757,-1.9047 5.1204,-7.2374 5.1377,-20.3742 0.013,-9.4692 -0.5557,-14.059 -2.1642,-17.4809 -1.3324,-2.8345 -3.1074,-3.7691 -7.1586,-3.7691 H 345.5 V 457.75 479 l 2.875,-10e-4 c 1.7416,-5e-4 3.5582,-0.3454 4.608,-0.875 z"
       style="fill:#ee4514;stroke-width:0.5"
       id="path14756" />
    <path
       d="m 666.60326,1091.8172 c -4.8101,-5.6891 -9.1484,-10.8554 -9.6406,-11.4809 -0.8933,-1.1349 -0.8761,-1.1596 8.75,-12.6248 5.3047,-6.3182 9.7575,-11.4867 9.895,-11.4856 0.1375,0 4.5993,5.1724 9.9151,11.4916 l 9.6652,11.4894 -1.7245,2.1005 c -5.0405,6.1393 -17.4419,20.6178 -17.7535,20.7269 -0.1987,0.07 -4.2967,-4.5281 -9.1067,-10.2171 z m 5.7544,-45.8034 c -5.6102,-3.1633 -8.7729,-14.086 -8.0666,-27.8587 0.5818,-11.3451 4.2574,-20.1687 9.1812,-22.0407 2.8672,-1.0902 6.9582,-0.2274 8.6631,1.8269 0.6505,0.7838 0.7264,0.7574 0.9834,-0.342 0.2222,-0.9507 0.6531,-1.2228 2.1337,-1.3466 l 1.8552,-0.1551 v 8.5301 8.5302 h -2 -2 v -3.9674 c 0,-4.4875 -0.4934,-6.1848 -2.3694,-8.1513 -2.5802,-2.7048 -6.472,-2.1432 -8.5346,1.2316 -2.1606,3.5349 -2.7133,6.6838 -2.9665,16.8985 -0.2747,11.0894 0.2525,15.9052 2.1756,19.8719 1.4467,2.9842 3.128,4.1167 6.1119,4.1167 1.6401,0 2.2496,-0.3131 3.6705,-1.886 0.9586,-1.0611 2.0979,-3.1386 2.6047,-4.75 0.8976,-2.8538 0.9079,-2.864 2.8881,-2.864 1.8204,0 1.9607,0.094 1.6731,1.125 -1.7086,6.1207 -4.2284,10.0375 -7.4375,11.5602 -2.474,1.174 -6.1504,1.0327 -8.5659,-0.3293 z m 157,-52.2009 c -4.675,-8.1219 -9.0384,-15.8092 -9.6964,-17.0828 -1.4096,-2.728 -1.5928,-6.5861 -0.4196,-8.8339 1.6857,-3.2297 5.6345,-5.7496 8.975,-5.7273 3.6763,0.024 7.7584,3.0625 9.0753,6.7539 0.5958,1.67 0.7615,1.8264 1.0439,0.9851 1.4178,-4.2248 4.3321,-6.9728 7.9736,-7.5189 7.7119,-1.1565 13.5493,6.5134 10.3385,13.5841 -0.9251,2.0371 -17.859,31.6186 -18.4736,32.271 -0.1742,0.1849 -4.1417,-6.3091 -8.8167,-14.4312 z m 6.5259,-41.78 c -0.1061,-0.3437 -1.9082,-10.3 -4.0046,-22.125 -2.0965,-11.825 -4.023,-22.0062 -4.2809,-22.625 -0.3397,-0.8149 -0.8853,-1.125 -1.9797,-1.125 -1.3932,0 -1.5107,-0.1361 -1.5107,-1.75 v -1.75 h 6 6 v 1.75 c 0,1.7083 -0.047,1.75 -2,1.75 -1.5676,0 -2.0021,0.1892 -2.0099,0.875 -0.021,1.8053 5.6841,35.1175 5.9658,34.8377 0.4314,-0.4285 6.015,-34.8553 5.7283,-35.3191 -0.1337,-0.2165 -1.1299,-0.3936 -2.2137,-0.3936 -1.9187,0 -1.9705,-0.046 -1.9705,-1.75 v -1.75 h 6.25 6.25 v 1.75 c 0,1.661 -0.088,1.75 -1.7205,1.75 -0.9462,0 -1.8307,0.1783 -1.9653,0.3961 -0.1347,0.2179 -2.1045,10.6804 -4.3774,23.25 l -4.1326,22.8539 h -1.9178 c -1.0981,0 -2.0002,-0.2672 -2.1105,-0.625 z m 154.7123,-48.6389 c -5.2675,-6.2055 -9.4731,-11.5534 -9.3457,-11.8844 0.1926,-0.5005 16.6603,-20.2293 18.5584,-22.2334 0.47334,-0.4997 2.47374,1.5811 9.57374,9.9592 4.9365,5.825 9.2926,11.0889 9.6803,11.6975 0.6704,1.0524 0.2472,1.6474 -8.6351,12.1425 -5.137,6.0698 -9.5457,11.1631 -9.7972,11.3186 -0.2514,0.1553 -4.76694,-4.7947 -10.03444,-11 z m -3.9882,-46.4861 c 0,-1.7407 0.012,-1.75 2.25,-1.75 h 2.25 v -21.25 -21.25 h -2.25 -2.25 v -2 -2 h 7.2786 c 8.56954,0 11.23344,0.5453 13.43944,2.7513 3.8,3.8 5.3236,10.158 5.3202,22.2007 0,11.8502 -1.4949,18.5636 -4.94,22.2346 -2.3407,2.4942 -3.7966,2.8134 -12.83214,2.8134 h -8.2661 z m 17.35904,-3.0612 c 2.2106,-1.6373 3.5564,-5.7463 4.1825,-12.7704 0.8629,-9.6807 -0.062,-20.4814 -2.1242,-24.807 -1.3104,-2.7484 -3.0171,-3.6114 -7.14244,-3.6114 h -3.2749 v 21.3064 21.3065 l 3.484,-0.1969 c 2.50814,-0.1417 3.87374,-0.4855 4.87504,-1.2272 z M 503.4362,434.6238 c -9.7344,-11.5377 -9.8205,-11.6604 -8.9005,-12.6831 0.511,-0.5681 4.8187,-5.6453 9.5726,-11.2828 4.754,-5.6375 8.8006,-10.3131 8.9925,-10.3903 0.4516,-0.1817 19.1283,21.8643 19.2015,22.6654 0.031,0.3339 -3.8821,5.2669 -8.6946,10.9623 -4.8125,5.6953 -9.1082,10.8105 -9.546,11.3671 -0.7678,0.976 -1.1444,0.599 -10.6255,-10.6386 z m 7.6715,-44.9077 c 0,-0.7112 -7.9844,-44.7457 -8.238,-45.4332 -0.1268,-0.3438 -1.0252,-0.625 -1.9963,-0.625 -1.6846,0 -1.7657,-0.08 -1.7657,-1.75 v -1.75 h 6.25 6.25 v 1.75 c 0,1.7407 -0.012,1.75 -2.25,1.75 -1.2375,0 -2.25,0.2342 -2.25,0.5205 0,0.7913 5.5298,34.1283 5.7934,34.9261 0.1266,0.3831 0.3339,0.5928 0.4607,0.466 0.2764,-0.2764 5.7459,-33.5305 5.7459,-34.9343 0,-0.808 -0.3481,-0.9783 -2,-0.9783 -1.9524,0 -2,-0.042 -2,-1.75 v -1.75 h 6 6 v 1.75 c 0,1.6601 -0.088,1.75 -1.7163,1.75 -1.2029,0 -1.7935,0.2618 -1.9745,0.875 -0.1421,0.4813 -1.9707,10.4375 -4.0637,22.125 -2.093,11.6875 -3.9288,21.7563 -4.0797,22.375 -0.226,0.927 -0.6168,1.125 -2.22,1.125 -1.0702,0 -1.9458,-0.1988 -1.9458,-0.4418 z m 156.74996,-50.6124 c -11.9181,-20.72011 -11.7365,-20.36202 -11.7437,-23.16294 -0.024,-9.16044 10.9682,-13.31919 17.0114,-6.43637 0.838,0.9545 1.655,2.39201 1.8155,3.19448 0.3712,1.85613 0.9598,1.86892 1.3279,0.0289 0.7091,-3.54555 5.0689,-6.56982 9.4711,-6.56982 5.3161,0 9.3678,4.23679 9.3678,9.79566 0,2.11566 -0.459,3.29666 -3.125,8.03997 -6.7645,12.03542 -16.138,28.14892 -16.375,28.14902 -0.1375,10e-5 -3.625,-5.8673 -7.75,-13.0389 z m 5,-42.7321 c -3.4983,-1.81947 -5.58,-5.11131 -7.3585,-11.63665 -0.8795,-3.22667 -1.0447,-5.27818 -1.0536,-13.07705 -0.01,-7.93797 0.1419,-9.80417 1.0635,-13.15697 1.3594,-4.94491 3.8131,-9.57434 5.9307,-11.18953 3.234,-2.46669 7.541,-2.42018 10.182,0.10995 l 1.4023,1.34357 0.1668,-1.17851 c 0.1365,-0.96415 0.5079,-1.20673 2.0418,-1.33369 l 1.875,-0.15518 v 8.53018 8.53018 h -2 -2 v -4.01606 c 0,-5.97343 -1.8452,-9.2223 -5.5533,-9.77765 -5.6321,-0.84349 -8.4467,6.58518 -8.4467,22.29371 0,8.66684 0.7504,14.60005 2.2014,17.40591 1.3178,2.54839 3.6011,4.09409 6.048,4.09409 1.9113,0 2.3759,-0.23744 3.862,-1.9736 0.9292,-1.08548 2.0832,-3.22298 2.5645,-4.75 0.8685,-2.75502 0.8905,-2.7764 2.8592,-2.7764 1.9109,0 1.9718,0.0506 1.6542,1.375 -1.2999,5.42035 -4.3996,10.13717 -7.5179,11.44006 -2.1851,0.91302 -6.0665,0.86336 -7.9214,-0.10136 z"
       style="fill:#ee4514;stroke-width:0.5"
       id="path14948"
       sodipodi:nodetypes="ssscscscssssssscccccssssssssscssssscscssssssssscccsscsssscccsssscsssssssssssscccccccsscsscssssscccsssssscssssssscccsssssssscccsssssssccsscsssscssccsscsscccccsssssssssss" />
    <path
       d="m 345.5,913.4164 c 0,-0.4884 2.378,-9.8216 3.3545,-13.1656 0.2211,-0.7574 -0.2015,-0.5536 -1.746,0.8417 -3.8303,3.4605 -8.4949,3.7492 -12.7448,0.7889 -3.177,-2.2129 -4.5642,-8.2123 -2.7111,-11.7251 0.9277,-1.7587 18.054,-22.2322 18.5974,-22.2322 0.5434,0 17.6697,20.4735 18.5974,22.2322 1.3741,2.6048 1.1236,6.3165 -0.6153,9.1165 -3.3058,5.3233 -10.0443,6.1529 -14.8336,1.826 -1.5477,-1.3982 -1.9738,-1.6044 -1.753,-0.848 0.9765,3.344 3.3545,12.6771 3.3545,13.1656 0,0.4039 -1.4631,0.5836 -4.75,0.5836 -3.2869,0 -4.75,-0.1797 -4.75,-0.5836 z m -9,-57.6664 c 0,-1.7407 0.012,-1.75 2.25,-1.75 H 341 V 832.75 811.5 h -2.2802 -2.2802 l 0.1552,-1.875 0.1552,-1.875 H 345 c 7.6974,0 8.3845,0.077 10.2586,1.1517 5.4287,3.1126 7.5328,10.8528 7.1273,26.2185 -0.3371,12.7693 -2.2578,18.4852 -7.1359,21.2357 -1.8527,1.0446 -2.6168,1.1283 -10.375,1.1359 l -8.375,0.01 z m 16.485,-2.3896 c 1.52,-0.7692 3.3334,-3.3882 4.0168,-5.8016 1.1551,-4.0788 1.687,-14.3796 1.1092,-21.4813 -0.9698,-11.9194 -2.6507,-14.572 -9.236,-14.5756 H 345.5 v 21.25 21.25 l 3.125,-0.01 c 1.7188,-0.01 3.6807,-0.2886 4.36,-0.6323 z m 642.01496,-127.444 c 0,-0.4884 2.378,-9.8216 3.3545,-13.1656 0.2209,-0.7564 -0.2052,-0.5502 -1.753,0.848 -4.7893,4.3269 -11.5277,3.4973 -14.8336,-1.826 -1.7389,-2.8 -1.9894,-6.5117 -0.6153,-9.1165 1.1033,-2.0913 18.133,-22.2641 18.6775,-22.1246 0.70434,0.1804 17.54334,20.2753 18.48114,22.0545 1.4115,2.6781 1.1798,6.3544 -0.579,9.1866 -3.3059,5.3233 -10.0444,6.1529 -14.8337,1.826 -1.5477,-1.3982 -1.9738,-1.6044 -1.7529,-0.848 0.9764,3.344 3.3544,12.6771 3.3544,13.1656 0,0.4039 -1.4631,0.5836 -4.75004,0.5836 -3.2869,0 -4.75,-0.1797 -4.75,-0.5836 z m 2.1003,-55.7522 c -6.0024,-2.9582 -8.9169,-12.2271 -8.4629,-26.9142 0.2012,-6.5087 0.4721,-8.7516 1.4531,-12.0321 2.3886,-7.988 5.7999,-11.7179 10.71714,-11.7179 2.2399,0 2.9261,0.2358 4.366,1.5 2.0756,1.8224 2.3264,1.8494 2.3264,0.25 0,-1.0952 0.2166,-1.25 1.75,-1.25 h 1.75 v 8.5 8.5 h -1.75 -1.75 l -0.01,-3.375 c -0.01,-6.4567 -1.9608,-9.9472 -5.866,-10.4709 -1.96124,-0.263 -2.26414,-0.1388 -4.07264,1.6697 -2.2454,2.2454 -3.2349,5.0364 -4.1135,11.602 -0.7237,5.4089 -0.2778,19.2884 0.7375,22.9516 1.4644,5.2838 3.9273,7.8921 7.36714,7.8019 3.049,-0.08 5.2488,-2.5236 6.6502,-7.3873 0.5435,-1.8864 0.7351,-2.0541 2.5136,-2.2013 l 1.9253,-0.1593 -0.3314,1.6593 c -0.5163,2.5858 -3.0082,7.509 -4.6082,9.1043 -2.8008,2.7927 -7.2505,3.6194 -10.59894,1.9692 z M 832.49996,444.764 c 0,-0.1298 0.7875,-3.1426 1.75,-6.695 2.0553,-7.5857 2.1208,-8.2675 0.6225,-6.4792 -1.8883,2.2539 -4.3454,3.4063 -7.2674,3.4083 -5.6802,0 -9.6051,-3.8771 -9.6051,-9.4981 0,-1.4023 0.3693,-3.2638 0.8207,-4.1366 0.8627,-1.6684 18.1653,-22.387 18.649,-22.3309 0.6939,0.081 17.8735,21.0935 18.6422,22.8019 1.6203,3.6011 0.6558,7.8824 -2.4238,10.7588 -3.6444,3.404 -9.8312,3.2301 -13.2145,-0.3714 -0.6314,-0.672 -1.3163,-1.2218 -1.5223,-1.2218 -0.2058,0 0.058,1.575 0.5873,3.5 0.5288,1.925 1.3941,5.075 1.9229,7 l 0.9615,3.5 h -4.9615 c -2.7288,0 -4.9615,-0.1062 -4.9615,-0.236 z m 2.7744,-56.8598 c -0.1426,-0.6348 -1.9502,-10.6042 -4.0169,-22.1542 -2.0666,-11.55 -3.8744,-21.5063 -4.0171,-22.125 -0.2079,-0.9015 -0.6052,-1.125 -2,-1.125 -1.6557,0 -1.7404,-0.085 -1.7404,-1.75 V 339 h 6 6 v 1.7213 c 0,1.6675 -0.066,1.726 -2.125,1.875 -1.5387,0.1113 -2.1,0.3606 -2.0346,0.9037 0.6608,5.481 5.9152,35.4306 6.1653,35.1417 0.2765,-0.3193 6.0092,-34.5059 5.9977,-35.7667 0,-0.2062 -1.0159,-0.375 -2.2534,-0.375 -2.2381,0 -2.25,-0.01 -2.25,-1.75 V 339 h 6.25 6.25 v 1.75 c 0,1.6995 -0.056,1.75 -1.941,1.75 h -1.9409 l -0.8777,4.875 c -0.4826,2.6813 -2.3654,13.0875 -4.184,23.125 l -3.3064,18.25 -1.8582,0.1542 c -1.5937,0.1322 -1.895,-0.01 -2.1174,-1 z"
       style="fill:#00007f;stroke-width:0.5"
       id="path15862" />
    <path
       d="m 996.44181,534.68957 c 0.6876,-2.5437 1.571,-5.732 1.9633,-7.0851 0.3922,-1.3529 0.598,-2.5751 0.4573,-2.7157 -0.1406,-0.1407 -0.9836,0.4486 -1.8733,1.3097 -5.1982,5.031 -12.85353,3.5584 -15.59363,-2.9996 -2.0495,-4.9052 0.7441,-10.6575 6.0217,-12.3993 1.7231,-0.5687 3.89213,-0.4689 6.70443,0.3084 1.2256,0.3388 1.2195,0.3125 -0.319,-1.3489 -2.5184,-2.7197 -3.32143,-4.7442 -3.0725,-7.7462 0.4212,-5.0786 4.2495,-8.6615 9.28259,-8.6873 2.8766,-0.014 5.0492,0.9695 6.9707,3.158 3.2819,3.7378 3.2085,9.0949 -0.1737,12.681 -0.9356,0.992 -1.6293,1.8755 -1.5415,1.9633 0.088,0.088 1.0372,-0.083 2.1097,-0.3788 6.0421,-1.6683 11.7437,2.7331 11.7437,9.0655 0,8.3976 -9.8861,12.5806 -15.7869,6.6798 -0.9788,-0.9789 -1.9053,-1.6542 -2.0588,-1.5007 -0.1536,0.1535 0.5364,3.3069 1.5333,7.0074 0.9968,3.7006 1.8124,6.86 1.8124,7.0209 0,0.1609 -2.1217,0.2926 -4.71499,0.2926 h -4.715 z"
       style="fill:#5e7065;stroke-width:0.5"
       id="path17110" />
    <path
       d="m 986.37161,481.20167 c 0,-1.7407 0.012,-1.75 2.25,-1.75 h 2.25 v -21.25 -21.25 h -2.25 -2.25 v -2 -2 h 7.2786 c 8.56949,0 11.23339,0.5453 13.43939,2.7513 3.8,3.8 5.3236,10.158 5.3202,22.2007 0,11.8502 -1.4949,18.5636 -4.94,22.2346 -2.3407,2.4942 -3.7966,2.8134 -12.83209,2.8134 h -8.2661 z m 17.35899,-3.0612 c 2.2106,-1.6373 3.5564,-5.7463 4.1825,-12.7704 0.8629,-9.6807 -0.062,-20.4814 -2.1242,-24.807 -1.3104,-2.7484 -3.0171,-3.6114 -7.14239,-3.6114 h -3.2749 v 21.3064 21.3065 l 3.484,-0.1969 c 2.50809,-0.1417 3.87369,-0.4855 4.87499,-1.2272 z"
       style="fill:#5e7065;fill-opacity:1;stroke-width:0.5"
       id="path17399" />
  </g>
</svg>
